<?xml version="1.0" encoding="UTF-8"?>
<svg width="16px" height="16px" viewBox="0 0 16 16" version="1.1" xmlns="http://www.w3.org/2000/svg" xmlns:xlink="http://www.w3.org/1999/xlink">
    <title>icon/video copy</title>
    <g id="Symbols" stroke="none" stroke-width="1" fill="none" fill-rule="evenodd">
        <g id="ui/button/default/icon" transform="translate(-20.000000, -16.000000)" fill="#FFFFFF">
            <g id="icon/video-copy" transform="translate(20.000000, 16.000000)">
                <path d="M8,0 C6.88556925,0 5.84506587,0.210150353 4.87846517,0.630457075 C3.90049288,1.03940432 3.05046602,1.60737825 2.32835869,2.33439691 C1.60625076,3.06141557 1.03482782,3.90769672 0.614072416,4.87327044 C0.204688838,5.85019763 0,6.88958991 0,7.99147738 C0,9.10472433 0.204688838,10.1441196 0.614072416,11.1096903 C1.03482782,12.0866211 1.60625076,12.9357434 2.32835869,13.6570817 C3.05046602,14.37842 3.90049288,14.9492344 4.87846517,15.3695417 C5.84506587,15.7898494 6.88556925,16 8,16 C9.11443678,16 10.1549371,15.7898494 11.1215342,15.3695417 C12.0995089,14.9492344 12.9495352,14.37842 13.6716431,13.6570817 C14.393751,12.9357434 14.9651734,12.0866211 15.3859282,11.1096903 C15.7953114,10.1441196 16,9.10472433 16,7.99147738 C16,6.88958991 15.7953114,5.85019763 15.3859282,4.87327044 C14.9651734,3.90769672 14.393751,3.06141557 13.6716431,2.33439691 C12.9495352,1.60737825 12.0995089,1.03940432 11.1215342,0.630457075 C10.1549371,0.210150353 9.11443678,0 8,0 Z M8.00000301,14.534611 C7.09025784,14.534611 6.23738869,14.3642188 5.44136543,14.0234291 C4.64534097,13.6826393 3.95167346,13.2169001 3.36034181,12.6261976 C2.76900956,12.0354951 2.30277382,11.3425663 1.96162074,10.5473901 C1.62046766,9.75221461 1.44989382,8.90025372 1.44989382,7.99147738 C1.44989382,7.08270707 1.62046766,6.23074618 1.96162074,5.43557065 C2.30277382,4.64039511 2.76900956,3.94746091 3.36034181,3.35676201 C3.95167346,2.76605709 4.64534097,2.30031847 5.44136543,1.9595281 C6.23738869,1.61873772 7.09025784,1.44834555 8.00000301,1.44834555 C8.90974216,1.44834555 9.76261131,1.61873772 10.5586346,1.9595281 C11.3546578,2.30031847 12.0483308,2.76605709 12.6396594,3.35676201 C13.2309941,3.94746091 13.6972292,4.64039511 14.0383829,5.43557065 C14.3795366,6.23074618 14.5501104,7.08270707 14.5501104,7.99147738 C14.5501104,8.90025372 14.3795366,9.75221461 14.0383829,10.5473901 C13.6972292,11.3425663 13.2309941,12.0354951 12.6396594,12.6261976 C12.0483308,13.2169001 11.3546578,13.6826393 10.5586346,14.0234291 C9.76261131,14.3642188 8.90974216,14.534611 8.00000301,14.534611 Z M11.3432862,7.41213796 L6.97654798,4.51544085 C6.87420368,4.4359245 6.75479598,4.39616633 6.61833691,4.39616633 C6.48187785,4.39616633 6.36247617,4.4359245 6.26012584,4.51544085 C6.11229519,4.54951929 6.0014228,4.61767616 5.92750627,4.71991146 C5.85358974,4.82215279 5.81663208,4.94710705 5.81663208,5.09478027 L5.81663208,10.9052179 C5.81663208,11.0528929 5.85074684,11.1806877 5.91897698,11.2886045 C5.98720772,11.3965208 6.07249463,11.4845573 6.17483893,11.5527148 C6.25444607,11.5981539 6.31698981,11.6237128 6.36247617,11.6293925 C6.40796252,11.6350722 6.47050626,11.6379121 6.55010738,11.6379121 C6.61833691,11.6379121 6.68940934,11.6208729 6.76332467,11.5867939 C6.83724602,11.5527148 6.90831845,11.5186364 6.97654798,11.4845573 L11.3432862,8.5708168 C11.4570021,8.50265993 11.5337603,8.41746384 11.5735609,8.31522854 C11.6133615,8.21299323 11.6332617,8.10507818 11.6332617,7.99147738 C11.6332617,7.88924208 11.6048328,7.78700677 11.5479748,7.68477146 C11.4911169,7.58253014 11.4228874,7.49165431 11.3432862,7.41213796 Z M7.26652349,9.52502504 L7.26652349,6.47497496 L9.60341509,7.99147738 L7.26652349,9.52502504 Z" id="Fill-1"></path>
            </g>
        </g>
    </g>
</svg>