<?xml version="1.0" encoding="UTF-8"?>
<!DOCTYPE svg PUBLIC "-//W3C//DTD SVG 1.1//EN" "http://www.w3.org/Graphics/SVG/1.1/DTD/svg11.dtd">
<!-- Creator: CorelDRAW 2020 (64-Bit) -->
<svg xmlns="http://www.w3.org/2000/svg" xml:space="preserve" width="1724px" height="298px" version="1.1" style="shape-rendering:geometricPrecision; text-rendering:geometricPrecision; image-rendering:optimizeQuality; fill-rule:evenodd; clip-rule:evenodd"
viewBox="0 0 1530.41 264.43"
 xmlns:xlink="http://www.w3.org/1999/xlink"
 xmlns:xodm="http://www.corel.com/coreldraw/odm/2003">
 <defs>
  <style type="text/css">
   <![CDATA[
    .fil16 {fill:blue}
    .fil17 {fill:blue}
    .fil15 {fill:#0101FE}
    .fil14 {fill:#0202FD}
    .fil13 {fill:#0303FC}
    .fil12 {fill:#0404FB}
    .fil11 {fill:#0606F9}
    .fil10 {fill:#0808F7}
    .fil9 {fill:#0A0AF5}
    .fil8 {fill:#0F0FF0}
    .fil7 {fill:#1616E9}
    .fil6 {fill:#2323DC}
    .fil5 {fill:#3E3EC1}
    .fil18 {fill:#7E0081}
    .fil4 {fill:#81817E}
    .fil0 {fill:#94E774}
    .fil19 {fill:#BD0042}
    .fil20 {fill:#D80027}
    .fil21 {fill:#E60019}
    .fil22 {fill:#EE0011}
    .fil23 {fill:#F3000C}
    .fil24 {fill:#F60009}
    .fil25 {fill:#F80007}
    .fil26 {fill:#FA0005}
    .fil27 {fill:#FB0004}
    .fil28 {fill:#FC0003}
    .fil29 {fill:#FD0002}
    .fil30 {fill:#FE0001}
    .fil31 {fill:red}
    .fil2 {fill:red}
    .fil3 {fill:yellow}
    .fil1 {fill:#94E774;fill-rule:nonzero}
   ]]>
  </style>
     <clipPath id="id0">
      <path d="M0 133.67c383.58,-72.85 810.62,-160.28 1530.41,50.19 -362.64,-202.22 -1094.55,-263.92 -1530.41,-50.19z"/>
     </clipPath>
 </defs>
 <g id="Capa_x0020_1">
  <metadata id="CorelCorpID_0Corel-Layer"/>
  <g id="_2534094924656">
   <path class="fil0" d="M275.34 119.76l138.66 0 0 142.21 -138.66 0 0 -142.21zm92.51 130.78l-5.25 -22 -35.63 0 -5.66 22 -38.87 0 41.12 -119.34 44.64 0 38.7 119.34 -39.05 0zm-22.7 -93.43l-0.82 0c-0.12,1.34 -0.48,3.52 -1.17,6.56 -0.65,3.07 -4.03,16.17 -10.08,39.3l22.84 0 -8.32 -32.45c-1.17,-4.77 -1.99,-9.26 -2.45,-13.41z"/>
   <path class="fil1" d="M537.38 262l-49.99 -68.32c-3.95,-5.4 -7.18,-10.25 -9.68,-14.6l-0.4 0c0.4,6.98 0.61,14.8 0.61,23.5l0 59.42 -39.44 0 0 -141.57 40.31 0 47.9 64.95c0.57,0.85 1.32,1.86 2.16,3.07 0.84,1.18 1.72,2.39 2.56,3.64 0.88,1.25 1.69,2.46 2.43,3.64 0.74,1.18 1.35,2.26 1.72,3.17l0.4 0c-0.4,-2.9 -0.61,-7.89 -0.61,-15l0 -63.47 39.44 0 0 141.57 -37.41 0z"/>
   <path id="1" class="fil1" d="M726.07 197.32c0,22.68 -5.19,39.57 -15.54,50.59 -10.38,11.03 -26.36,16.52 -47.93,16.52 -20.16,0 -35.43,-5.49 -45.87,-16.52 -10.42,-11.02 -15.65,-27.64 -15.65,-49.82l0 -77.66 42.88 0 0 79.28c0,9.07 1.69,16.05 5.09,20.97 3.41,4.88 8.26,7.34 14.6,7.34 6.37,0 11.22,-2.29 14.56,-6.9 3.33,-4.62 4.99,-11.43 4.99,-20.43l0 -80.26 42.87 0 0 76.89z"/>
   <path id="2" class="fil1" d="M887.1 190.78c0,14.22 -3.07,26.93 -9.17,38.16 -6.14,11.22 -14.7,19.95 -25.69,26.15 -10.99,6.24 -23.29,9.34 -36.94,9.34 -13.28,0 -25.38,-3 -36.27,-9.03 -10.89,-6.04 -19.38,-14.5 -25.45,-25.39 -6.03,-10.88 -9.07,-23.22 -9.07,-36.97 0,-14.43 3.07,-27.37 9.17,-38.9 6.13,-11.53 14.73,-20.43 25.79,-26.7 11.05,-6.3 23.63,-9.44 37.72,-9.44 13.55,0 25.68,3 36.37,9.04 10.72,6.03 18.97,14.63 24.81,25.78 5.83,11.16 8.73,23.8 8.73,37.96zm-45.31 1.21c0,-11.63 -2.22,-20.8 -6.71,-27.5 -4.48,-6.71 -10.58,-10.08 -18.33,-10.08 -8.5,0 -15.1,3.23 -19.82,9.67 -4.76,6.44 -7.11,15.54 -7.11,27.34 0,11.49 2.35,20.49 7.04,26.93 4.72,6.44 11.09,9.67 19.18,9.67 4.95,0 9.37,-1.44 13.31,-4.34 3.95,-2.9 7.01,-7.05 9.17,-12.44 2.19,-5.39 3.27,-11.8 3.27,-19.25z"/>
   <path id="3" class="fil1" d="M980.63 262l-10.58 -30.5c-2.02,-6 -4.69,-10.69 -7.92,-14.13 -3.27,-3.4 -6.81,-5.12 -10.62,-5.12l-1.68 0 0 49.75 -42.68 0 0 -141.57 56.63 0c19.82,0 34.45,3.24 43.89,9.74 9.44,6.47 14.16,16.18 14.16,29.16 0,9.74 -2.73,17.9 -8.23,24.47 -5.49,6.61 -13.68,11.36 -24.54,14.33l0 0.4c6,1.82 10.99,4.82 14.97,8.97 4.01,4.14 7.58,10.31 10.72,18.47l13.95 36.03 -48.07 0zm-4.11 -96.64c0,-4.75 -1.45,-8.49 -4.35,-11.26 -2.86,-2.76 -7.41,-4.14 -13.58,-4.14l-8.76 0 0 32.36 7.68 0c5.73,0 10.32,-1.62 13.79,-4.82 3.47,-3.24 5.22,-7.28 5.22,-12.14z"/>
   <path id="4" class="fil1" d="M1133.9 262l-6.23 -26.09 -42.27 0 -6.71 26.09 -46.11 0 48.77 -141.57 52.96 0 45.91 141.57 -46.32 0zm-26.93 -110.83l-0.98 0c-0.13,1.59 -0.57,4.18 -1.38,7.79 -0.77,3.64 -4.78,19.18 -11.96,46.62l27.1 0 -9.88 -38.5c-1.38,-5.66 -2.36,-10.99 -2.9,-15.91z"/>
   <g>
    <g style="clip-path:url(#id0)">
     <polygon class="fil2" points="1101.46,267.67 -405.54,84.34 522.08,-96.91 2029.08,86.42 "/>
     <path id="1" class="fil3" d="M-604.21 -67.52c129.92,-25.39 368.72,-29.73 533.37,-9.7 164.66,20.03 192.81,56.85 62.89,82.23 -129.92,25.39 -368.72,29.73 -533.37,9.7 -164.66,-20.03 -192.81,-56.85 -62.89,-82.23zm-9.94 -1.21c-134.25,26.23 -105.16,64.27 64.98,84.97 170.14,20.7 416.9,16.21 551.16,-10.02 134.25,-26.23 105.16,-64.27 -64.99,-84.97 -170.14,-20.7 -416.9,-16.21 -551.15,10.02z"/>
     <path id="2" class="fil3" d="M-610.84 -68.33c132.81,-25.95 376.92,-30.39 545.23,-9.91 168.31,20.47 197.09,58.11 64.29,84.06 -132.81,25.95 -376.92,30.39 -545.23,9.91 -168.32,-20.48 -197.1,-58.11 -64.29,-84.06zm-9.93 -1.21c-137.14,26.8 -107.42,65.66 66.38,86.8 173.8,21.15 425.86,16.56 563,-10.23 137.14,-26.8 107.42,-65.66 -66.38,-86.8 -173.8,-21.15 -425.87,-16.56 -563,10.23z"/>
     <path id="3" class="fil3" d="M-617.46 -69.14c135.69,-26.51 385.11,-31.04 557.08,-10.12 171.97,20.92 201.38,59.37 65.68,85.88 -135.7,26.52 -385.11,31.05 -557.08,10.13 -171.97,-20.92 -201.38,-59.37 -65.68,-85.89zm-9.94 -1.21c-140.03,27.36 -109.68,67.05 67.78,88.63 177.46,21.59 434.83,16.91 574.86,-10.45 140.02,-27.36 109.68,-67.04 -67.78,-88.63 -177.46,-21.58 -434.83,-16.91 -574.86,10.45z"/>
     <path id="4" class="fil3" d="M-624.09 -69.94c138.59,-27.08 393.31,-31.71 568.94,-10.34 175.63,21.36 205.66,60.63 67.08,87.71 -138.59,27.08 -393.31,31.71 -568.94,10.34 -175.63,-21.36 -205.66,-60.64 -67.08,-87.71zm-9.93 -1.21c-142.92,27.92 -111.95,68.42 69.17,90.46 181.12,22.03 443.8,17.25 586.71,-10.67 142.92,-27.92 111.95,-68.42 -69.17,-90.46 -181.12,-22.03 -443.8,-17.26 -586.71,10.67z"/>
     <path id="5" class="fil3" d="M-630.71 -70.75c141.47,-27.64 401.49,-32.37 580.78,-10.56 179.29,21.82 209.95,61.91 68.48,89.55 -141.47,27.64 -401.5,32.37 -580.79,10.55 -179.28,-21.81 -209.94,-61.9 -68.47,-89.54zm-9.94 -1.21c-145.8,28.49 -114.2,69.81 70.57,92.29 184.78,22.48 452.77,17.6 598.57,-10.88 145.8,-28.49 114.2,-69.81 -70.58,-92.29 -184.77,-22.48 -452.76,-17.61 -598.56,10.88z"/>
     <path id="6" class="fil3" d="M-637.34 -71.55c144.36,-28.21 409.69,-33.03 592.64,-10.78 182.95,22.26 214.23,63.17 69.88,91.37 -144.36,28.21 -409.7,33.03 -592.64,10.78 -182.95,-22.26 -214.23,-63.17 -69.88,-91.37zm-9.94 -1.21c-148.68,29.05 -116.46,71.18 71.98,94.11 188.43,22.92 461.72,17.95 610.41,-11.1 148.69,-29.05 116.47,-71.19 -71.97,-94.11 -188.43,-22.92 -461.73,-17.96 -610.42,11.1z"/>
     <path id="7" class="fil3" d="M-643.96 -72.36c147.24,-28.77 417.88,-33.69 604.49,-10.99 186.61,22.7 218.52,64.43 71.27,93.2 -147.24,28.77 -417.88,33.69 -604.49,10.99 -186.61,-22.7 -218.52,-64.43 -71.27,-93.2zm-9.94 -1.21c-151.58,29.62 -118.73,72.57 73.37,95.94 192.09,23.37 470.69,18.3 622.27,-11.31 151.57,-29.62 118.73,-72.57 -73.37,-95.94 -192.1,-23.37 -470.7,-18.31 -622.27,11.31z"/>
     <path id="8" class="fil3" d="M-650.59 -73.17c150.13,-29.33 426.08,-34.35 616.35,-11.2 190.26,23.15 222.8,65.69 72.67,95.02 -150.14,29.34 -426.08,34.36 -616.35,11.21 -190.26,-23.15 -222.8,-65.69 -72.67,-95.03zm-9.94 -1.21c-154.46,30.18 -120.98,73.96 74.77,97.77 195.75,23.81 479.66,18.65 634.12,-11.53 154.47,-30.18 120.99,-73.95 -74.76,-97.76 -195.76,-23.82 -479.66,-18.66 -634.13,11.52z"/>
     <path id="9" class="fil3" d="M-657.21 -73.97c153.02,-29.9 434.27,-35.01 628.19,-11.42 193.93,23.59 227.09,66.95 74.07,96.85 -153.02,29.9 -434.27,35.01 -628.2,11.42 -193.92,-23.59 -227.08,-66.95 -74.06,-96.85zm-9.94 -1.21c-157.35,30.74 -123.25,75.33 76.16,99.59 199.42,24.26 488.63,19 645.98,-11.74 157.35,-30.74 123.25,-75.33 -76.16,-99.59 -199.42,-24.26 -488.63,-19.01 -645.98,11.74z"/>
     <path id="10" class="fil3" d="M-663.84 -74.78c155.91,-30.46 442.47,-35.67 640.05,-11.63 197.59,24.03 231.37,68.21 75.47,98.68 -155.91,30.46 -442.47,35.67 -640.05,11.63 -197.59,-24.04 -231.37,-68.22 -75.47,-98.68zm-9.94 -1.21c-160.23,31.31 -125.51,76.72 77.56,101.42 203.08,24.71 497.6,19.35 657.83,-11.95 160.24,-31.31 125.51,-76.72 -77.56,-101.43 -203.07,-24.7 -497.59,-19.35 -657.83,11.96z"/>
     <path id="11" class="fil3" d="M-670.46 -75.58c158.79,-31.03 450.66,-36.34 651.9,-11.85 201.24,24.48 235.65,69.48 76.86,100.5 -158.79,31.03 -450.66,36.33 -651.9,11.85 -201.24,-24.48 -235.66,-69.48 -76.86,-100.5zm-9.94 -1.21c-163.12,31.87 -127.77,78.09 78.96,103.24 206.73,25.15 506.55,19.7 669.68,-12.17 163.12,-31.87 127.77,-78.1 -78.96,-103.25 -206.73,-25.15 -506.56,-19.7 -669.68,12.18z"/>
     <path id="12" class="fil3" d="M-677.09 -76.39c161.68,-31.59 458.86,-36.99 663.76,-12.07 204.9,24.93 239.94,70.75 78.26,102.34 -161.68,31.59 -458.86,36.99 -663.76,12.06 -204.9,-24.92 -239.94,-70.74 -78.26,-102.33zm-9.94 -1.21c-166.01,32.44 -130.03,79.48 80.36,105.08 210.39,25.59 515.52,20.04 681.53,-12.39 166.01,-32.44 130.04,-79.48 -80.35,-105.08 -210.39,-25.59 -515.53,-20.05 -681.54,12.39z"/>
     <path id="13" class="fil3" d="M-683.71 -77.2c164.56,-32.15 467.04,-37.65 675.6,-12.28 208.57,25.37 244.23,72.01 79.66,104.16 -164.57,32.16 -467.05,37.66 -675.61,12.29 -208.56,-25.38 -244.22,-72.01 -79.65,-104.17zm-9.94 -1.21c-168.9,33.01 -132.3,80.87 81.75,106.91 214.05,26.04 524.49,20.39 693.39,-12.61 168.9,-33 132.3,-80.86 -81.75,-106.9 -214.05,-26.04 -524.49,-20.4 -693.39,12.6z"/>
     <path id="14" class="fil3" d="M-690.34 -78c167.46,-32.72 475.24,-38.32 687.46,-12.5 212.22,25.82 248.51,73.27 81.06,105.99 -167.46,32.72 -475.25,38.32 -687.46,12.5 -212.22,-25.82 -248.51,-73.27 -81.06,-105.99zm-9.94 -1.21c-171.78,33.56 -134.55,82.24 83.15,108.73 217.71,26.48 533.46,20.75 705.24,-12.82 171.79,-33.57 134.56,-82.25 -83.15,-108.73 -217.7,-26.49 -533.45,-20.75 -705.24,12.82z"/>
     <path id="15" class="fil3" d="M-696.96 -78.81c170.34,-33.28 483.43,-38.97 699.31,-12.71 215.88,26.26 252.79,74.53 82.45,107.82 -170.34,33.28 -483.43,38.97 -699.31,12.71 -215.88,-26.26 -252.8,-74.54 -82.45,-107.82zm-9.94 -1.21c-174.67,34.13 -136.82,83.63 84.55,110.56 221.36,26.93 542.42,21.1 717.09,-13.03 174.67,-34.13 136.82,-83.63 -84.55,-110.56 -221.37,-26.93 -542.42,-21.1 -717.09,13.03z"/>
     <path id="16" class="fil3" d="M-703.59 -79.61c173.23,-33.85 491.63,-39.64 711.17,-12.93 219.53,26.71 257.08,75.8 83.85,109.64 -173.23,33.85 -491.63,39.64 -711.17,12.93 -219.54,-26.71 -257.08,-75.8 -83.85,-109.64zm-9.94 -1.21c-177.56,34.69 -139.08,85.01 85.95,112.38 225.02,27.38 551.38,21.45 728.94,-13.25 177.56,-34.69 139.08,-85.01 -85.94,-112.38 -225.03,-27.38 -551.39,-21.45 -728.95,13.25z"/>
     <path id="17" class="fil3" d="M-710.21 -80.42c176.11,-34.41 499.82,-40.3 723.01,-13.14 223.2,27.15 261.37,77.06 85.25,111.47 -176.11,34.41 -499.82,40.29 -723.02,13.14 -223.19,-27.15 -261.36,-77.06 -85.24,-111.47zm-9.94 -1.21c-180.45,35.26 -141.34,86.39 87.34,114.21 228.69,27.82 560.35,21.8 740.8,-13.46 180.45,-35.26 141.34,-86.4 -87.34,-114.21 -228.69,-27.83 -560.36,-21.8 -740.8,13.46z"/>
     <path id="18" class="fil3" d="M-716.84 -81.23c179,-34.97 508.02,-40.95 734.87,-13.35 226.86,27.59 265.65,78.32 86.65,113.29 -179.01,34.98 -508.02,40.96 -734.87,13.36 -226.86,-27.6 -265.65,-78.32 -86.65,-113.3zm-9.94 -1.2c-183.33,35.82 -143.6,87.77 88.74,116.04 232.35,28.26 569.32,22.14 752.66,-13.69 183.33,-35.82 143.6,-87.77 -88.75,-116.04 -232.34,-28.26 -569.31,-22.14 -752.65,13.69z"/>
     <path id="19" class="fil3" d="M-723.46 -82.03c181.89,-35.54 516.21,-41.62 746.72,-13.58 230.51,28.05 269.93,79.59 88.04,115.13 -181.89,35.54 -516.21,41.62 -746.72,13.57 -230.52,-28.04 -269.93,-79.58 -88.04,-115.12zm-9.94 -1.21c-186.22,36.38 -145.87,89.16 90.14,117.87 236,28.71 578.28,22.49 764.5,-13.9 186.22,-36.39 145.86,-89.16 -90.14,-117.87 -236,-28.71 -578.28,-22.49 -764.5,13.9z"/>
     <path id="20" class="fil3" d="M-730.09 -82.84c184.78,-36.1 524.4,-42.28 758.58,-13.79 234.17,28.49 274.21,80.85 89.44,116.96 -184.78,36.1 -524.41,42.27 -758.58,13.79 -234.17,-28.49 -274.22,-80.85 -89.44,-116.96zm-9.94 -1.21c-189.11,36.95 -148.12,90.54 91.54,119.7 239.66,29.15 587.25,22.84 776.36,-14.11 189.1,-36.95 148.12,-90.54 -91.54,-119.7 -239.66,-29.16 -587.25,-22.84 -776.36,14.11z"/>
     <path id="21" class="fil3" d="M-736.71 -83.64c187.66,-36.67 532.59,-42.94 770.43,-14.01 237.83,28.93 278.5,82.11 90.83,118.78 -187.66,36.67 -532.6,42.94 -770.43,14.01 -237.83,-28.94 -278.5,-82.12 -90.83,-118.78zm-9.94 -1.21c-192,37.51 -150.39,91.92 92.93,121.52 243.32,29.6 596.21,23.19 788.21,-14.33 192,-37.51 150.39,-91.92 -92.93,-121.52 -243.32,-29.6 -596.22,-23.19 -788.21,14.33z"/>
     <path id="22" class="fil3" d="M-743.34 -84.45c190.55,-37.23 540.79,-43.6 782.28,-14.22 241.49,29.38 282.79,83.38 92.24,120.61 -190.55,37.23 -540.79,43.6 -782.29,14.22 -241.49,-29.38 -282.78,-83.38 -92.23,-120.61zm-9.94 -1.21c-194.88,38.08 -152.65,93.3 94.33,123.35 246.98,30.05 605.18,23.54 800.07,-14.54 194.88,-38.08 152.64,-93.31 -94.34,-123.35 -246.97,-30.05 -605.18,-23.54 -800.06,14.54z"/>
     <path id="23" class="fil3" d="M-749.96 -85.26c193.43,-37.79 548.98,-44.25 794.13,-14.43 245.15,29.82 287.07,84.64 93.63,122.43 -193.44,37.8 -548.98,44.26 -794.13,14.44 -245.15,-29.82 -287.07,-84.64 -93.63,-122.44zm-9.94 -1.21c-197.77,38.65 -154.91,94.69 95.73,125.18 250.63,30.49 614.14,23.89 811.91,-14.76 197.77,-38.64 154.91,-94.68 -95.73,-125.17 -250.64,-30.5 -614.14,-23.89 -811.91,14.75z"/>
     <path id="24" class="fil3" d="M-756.59 -86.06c196.33,-38.36 557.18,-44.92 805.99,-14.65 248.81,30.27 291.35,85.9 95.03,124.26 -196.33,38.36 -557.18,44.92 -805.99,14.65 -248.81,-30.27 -291.36,-85.9 -95.03,-124.26zm-9.94 -1.21c-200.65,39.21 -157.17,96.07 97.13,127 254.3,30.94 623.11,24.24 823.77,-14.97 200.65,-39.21 157.17,-96.07 -97.13,-127.01 -254.3,-30.93 -623.11,-24.23 -823.77,14.98z"/>
     <path id="25" class="fil3" d="M-763.22 -86.87c199.22,-38.92 565.38,-45.58 817.85,-14.87 252.46,30.72 295.64,87.17 96.42,126.1 -199.21,38.92 -565.37,45.58 -817.84,14.86 -252.47,-30.71 -295.64,-87.16 -96.43,-126.09zm-9.93 -1.21c-203.55,39.77 -159.44,97.45 98.52,128.84 257.96,31.38 632.08,24.58 835.62,-15.19 203.54,-39.77 159.43,-97.46 -98.52,-128.84 -257.96,-31.38 -632.08,-24.58 -835.62,15.19z"/>
     <path id="26" class="fil3" d="M-769.84 -87.67c202.1,-39.49 573.57,-46.25 829.69,-15.09 256.13,31.16 299.93,88.43 97.83,127.92 -202.1,39.49 -573.57,46.24 -829.7,15.08 -256.12,-31.15 -299.92,-88.43 -97.82,-127.91zm-9.94 -1.21c-206.43,40.33 -161.69,98.83 99.92,130.66 261.62,31.82 641.04,24.93 847.48,-15.41 206.43,-40.33 161.69,-98.83 -99.92,-130.66 -261.62,-31.82 -641.05,-24.93 -847.48,15.41z"/>
     <path id="27" class="fil3" d="M-776.47 -88.48c204.99,-40.05 581.77,-46.9 841.55,-15.3 259.79,31.61 304.21,89.7 99.22,129.75 -204.98,40.05 -581.76,46.9 -841.54,15.3 -259.79,-31.61 -304.21,-89.7 -99.23,-129.75zm-9.93 -1.21c-209.32,40.9 -163.96,100.22 101.31,132.49 265.28,32.27 650.01,25.28 859.33,-15.62 209.32,-40.9 163.96,-100.22 -101.32,-132.49 -265.27,-32.27 -650,-25.28 -859.32,15.62z"/>
     <path id="28" class="fil3" d="M-783.09 -89.29c207.87,-40.61 589.95,-47.56 853.4,-15.51 263.44,32.05 308.49,90.96 100.62,131.57 -207.88,40.62 -589.96,47.57 -853.4,15.52 -263.45,-32.05 -308.49,-90.96 -100.62,-131.58zm-9.94 -1.2c-212.2,41.46 -166.22,101.59 102.72,134.31 268.93,32.72 658.97,25.63 871.18,-15.84 212.2,-41.46 166.21,-101.59 -102.72,-134.31 -268.93,-32.72 -658.97,-25.63 -871.18,15.84z"/>
     <path id="29" class="fil3" d="M-789.72 -90.09c210.77,-41.18 598.15,-48.22 865.26,-15.73 267.1,32.49 312.78,92.22 102.01,133.4 -210.76,41.18 -598.14,48.22 -865.25,15.73 -267.1,-32.5 -312.78,-92.22 -102.02,-133.4zm-9.93 -1.21c-215.1,42.03 -168.48,102.98 104.11,136.14 272.59,33.16 667.94,25.98 883.03,-16.05 215.09,-42.03 168.48,-102.98 -104.11,-136.14 -272.59,-33.16 -667.94,-25.98 -883.03,16.05z"/>
     <path id="30" class="fil3" d="M-796.34 -90.9c213.65,-41.74 606.34,-48.88 877.1,-15.94 270.77,32.94 317.07,93.48 103.42,135.23 -213.65,41.74 -606.34,48.88 -877.11,15.94 -270.76,-32.94 -317.06,-93.48 -103.41,-135.23zm-9.94 -1.21c-217.98,42.59 -170.74,104.37 105.51,137.97 276.25,33.61 676.91,26.33 894.89,-16.26 217.98,-42.6 170.74,-104.37 -105.51,-137.97 -276.26,-33.61 -676.91,-26.33 -894.89,16.26z"/>
     <path id="31" class="fil3" d="M-802.97 -91.7c216.54,-42.31 614.54,-49.55 888.96,-16.16 274.42,33.38 321.35,94.74 104.81,137.05 -216.53,42.31 -614.53,49.55 -888.95,16.16 -274.43,-33.38 -321.35,-94.74 -104.82,-137.05zm-9.93 -1.21c-220.87,43.15 -173.01,105.74 106.9,139.79 279.91,34.06 685.87,26.68 906.74,-16.48 220.87,-43.15 173,-105.74 -106.91,-139.8 -279.91,-34.05 -685.87,-26.67 -906.73,16.49z"/>
     <path id="32" class="fil3" d="M-809.59 -92.51c219.42,-42.87 622.73,-50.2 900.81,-16.37 278.08,33.83 325.63,96.01 106.21,138.88 -219.42,42.87 -622.73,50.2 -900.81,16.37 -278.08,-33.83 -325.63,-96.01 -106.21,-138.88zm-9.94 -1.21c-223.75,43.72 -175.26,107.13 108.31,141.62 283.57,34.5 694.83,27.03 918.59,-16.69 223.75,-43.72 175.26,-107.13 -108.31,-141.63 -283.57,-34.49 -694.83,-27.02 -918.59,16.7z"/>
     <path id="33" class="fil3" d="M-816.22 -93.32c222.31,-43.43 630.93,-50.86 912.67,-16.59 281.74,34.28 329.91,97.28 107.6,140.71 -222.31,43.44 -630.92,50.87 -912.66,16.59 -281.74,-34.27 -329.92,-97.27 -107.61,-140.71zm-9.93 -1.2c-226.64,44.28 -177.53,108.5 109.7,143.45 287.23,34.94 703.8,27.37 930.44,-16.92 226.64,-44.28 177.53,-108.51 -109.7,-143.45 -287.23,-34.94 -703.8,-27.37 -930.44,16.92z"/>
     <path id="34" class="fil3" d="M-822.84 -94.12c225.2,-44 639.12,-51.53 924.52,-16.81 285.39,34.72 334.2,98.54 109,142.54 -225.2,44 -639.12,51.53 -924.52,16.81 -285.4,-34.72 -334.2,-98.54 -109,-142.54zm-9.94 -1.21c-229.53,44.85 -179.79,109.89 111.1,145.28 290.89,35.39 712.77,27.72 942.3,-17.13 229.52,-44.85 179.78,-109.89 -111.1,-145.28 -290.89,-35.39 -712.77,-27.72 -942.3,17.13z"/>
     <path id="35" class="fil3" d="M-829.47 -94.93c228.09,-44.56 647.31,-52.18 936.37,-17.02 289.06,35.17 338.49,99.8 110.4,144.37 -228.08,44.56 -647.31,52.18 -936.37,17.02 -289.05,-35.17 -338.48,-99.8 -110.4,-144.37zm-9.93 -1.21c-232.42,45.42 -182.05,111.28 112.49,147.11 294.55,35.83 721.74,28.07 954.15,-17.34 232.42,-45.42 182.05,-111.28 -112.5,-147.11 -294.54,-35.83 -721.73,-28.07 -954.14,17.34z"/>
     <path id="36" class="fil3" d="M-836.09 -95.73c230.97,-45.13 655.5,-52.85 948.22,-17.24 292.72,35.61 342.77,101.06 111.8,146.19 -230.97,45.13 -655.51,52.85 -948.22,17.24 -292.72,-35.61 -342.77,-101.06 -111.8,-146.19zm-9.94 -1.21c-235.3,45.97 -184.31,112.65 113.9,148.93 298.2,36.28 730.69,28.42 966,-17.56 235.3,-45.97 184.31,-112.65 -113.9,-148.93 -298.2,-36.28 -730.7,-28.42 -966,17.56z"/>
     <path id="37" class="fil3" d="M-842.72 -96.54c233.86,-45.69 663.7,-53.51 960.08,-17.45 296.37,36.05 347.05,102.32 113.19,148.02 -233.85,45.69 -663.69,53.51 -960.07,17.45 -296.38,-36.06 -347.06,-102.33 -113.2,-148.02zm-9.93 -1.21c-238.19,46.54 -186.58,114.04 115.29,150.76 301.86,36.73 739.66,28.77 977.85,-17.77 238.19,-46.54 186.57,-114.04 -115.29,-150.76 -301.87,-36.73 -739.66,-28.77 -977.85,17.77z"/>
     <path id="38" class="fil3" d="M-849.34 -97.35c236.74,-46.25 671.89,-54.16 971.93,-17.66 300.03,36.5 351.34,103.59 114.59,149.84 -236.75,46.26 -671.89,54.17 -971.93,17.67 -300.03,-36.5 -351.34,-103.59 -114.59,-149.85zm-9.94 -1.2c-241.08,47.1 -188.83,115.42 116.69,152.58 305.52,37.17 748.63,29.12 989.71,-17.99 241.07,-47.1 188.83,-115.42 -116.69,-152.59 -305.53,-37.16 -748.63,-29.11 -989.71,18z"/>
     <path id="39" class="fil3" d="M-855.97 -98.15c239.64,-46.82 680.09,-54.83 983.78,-17.88 303.7,36.94 355.63,104.85 115.99,151.67 -239.63,46.82 -680.08,54.83 -983.78,17.88 -303.69,-36.94 -355.62,-104.85 -115.99,-151.67zm-9.93 -1.21c-243.97,47.67 -191.1,116.8 118.08,154.42 309.19,37.61 757.6,29.46 1001.56,-18.21 243.97,-47.67 191.1,-116.8 -118.09,-154.42 -309.18,-37.61 -757.59,-29.46 -1001.55,18.21z"/>
     <path id="40" class="fil3" d="M-862.59 -98.96c242.52,-47.38 688.28,-55.49 995.63,-18.1 307.35,37.39 359.91,106.12 117.39,153.51 -242.52,47.38 -688.28,55.48 -995.63,18.09 -307.36,-37.39 -359.91,-106.11 -117.39,-153.5zm-9.94 -1.21c-246.85,48.24 -193.36,118.19 119.49,156.25 312.84,38.05 766.56,29.81 1013.41,-18.43 246.85,-48.23 193.35,-118.18 -119.49,-156.24 -312.84,-38.06 -766.56,-29.81 -1013.41,18.42z"/>
     <path id="41" class="fil3" d="M-869.22 -99.76c245.41,-47.95 696.48,-56.15 1007.49,-18.32 311.01,37.84 364.19,107.38 118.78,155.33 -245.4,47.95 -696.47,56.15 -1007.48,18.32 -311.01,-37.84 -364.19,-107.38 -118.79,-155.33zm-9.93 -1.21c-249.74,48.79 -195.62,119.56 120.88,158.07 316.5,38.5 775.52,30.16 1025.26,-18.64 249.74,-48.8 195.62,-119.57 -120.88,-158.07 -316.5,-38.5 -775.53,-30.16 -1025.26,18.64z"/>
     <path id="42" class="fil3" d="M-875.84 -100.57c248.29,-48.51 704.67,-56.81 1019.34,-18.53 314.67,38.28 368.47,108.64 120.18,157.16 -248.29,48.51 -704.67,56.81 -1019.34,18.53 -314.67,-38.28 -368.48,-108.64 -120.18,-157.16zm-9.94 -1.21c-252.63,49.36 -197.88,120.95 122.28,159.9 320.16,38.95 784.49,30.51 1037.12,-18.85 252.62,-49.36 197.88,-120.95 -122.28,-159.9 -320.16,-38.95 -784.49,-30.51 -1037.12,18.85z"/>
     <path id="43" class="fil3" d="M-882.47 -101.38c251.18,-49.07 712.86,-57.47 1031.19,-18.74 318.33,38.73 372.77,109.91 121.58,158.98 -251.18,49.08 -712.86,57.47 -1031.19,18.75 -318.33,-38.73 -372.76,-109.91 -121.58,-158.99zm-9.94 -1.2c-255.51,49.92 -200.14,122.33 123.68,161.72 323.82,39.39 793.46,30.86 1048.97,-19.07 255.51,-49.92 200.14,-122.33 -123.67,-161.72 -323.82,-39.4 -793.46,-30.86 -1048.98,19.07z"/>
     <path id="44" class="fil3" d="M-889.09 -102.18c254.07,-49.64 721.05,-58.13 1043.04,-18.96 321.99,39.17 377.05,111.17 122.98,160.81 -254.07,49.64 -721.06,58.13 -1043.04,18.96 -321.99,-39.17 -377.05,-111.17 -122.98,-160.81zm-9.94 -1.21c-258.4,50.49 -202.4,123.71 125.07,163.55 327.48,39.84 802.43,31.21 1060.83,-19.28 258.4,-50.49 202.4,-123.72 -125.08,-163.55 -327.47,-39.84 -802.42,-31.21 -1060.82,19.28z"/>
     <path id="45" class="fil3" d="M-895.72 -102.99c256.96,-50.2 729.25,-58.79 1054.9,-19.17 325.65,39.61 381.33,112.43 124.38,162.64 -256.96,50.2 -729.25,58.79 -1054.9,19.17 -325.65,-39.62 -381.33,-112.43 -124.38,-162.64zm-9.94 -1.21c-261.28,51.06 -204.66,125.1 126.48,165.38 331.13,40.29 811.39,31.56 1072.67,-19.5 261.29,-51.05 204.67,-125.09 -126.47,-165.38 -331.14,-40.28 -811.39,-31.55 -1072.68,19.5z"/>
     <path id="46" class="fil3" d="M-902.34 -103.79c259.84,-50.77 737.44,-59.46 1066.75,-19.39 329.3,40.06 385.61,113.69 125.77,164.46 -259.84,50.77 -737.44,59.45 -1066.75,19.39 -329.31,-40.06 -385.62,-113.69 -125.77,-164.46zm-9.94 -1.21c-264.17,51.61 -206.92,126.48 127.87,167.21 334.79,40.72 820.35,31.9 1084.53,-19.72 264.17,-51.62 206.92,-126.48 -127.87,-167.21 -334.8,-40.73 -820.36,-31.9 -1084.53,19.72z"/>
     <path id="47" class="fil3" d="M-908.97 -104.6c262.73,-51.33 745.64,-60.11 1078.6,-19.61 332.97,40.51 389.91,114.96 127.18,166.3 -262.73,51.33 -745.64,60.11 -1078.61,19.6 -332.96,-40.5 -389.9,-114.95 -127.17,-166.29zm-9.94 -1.21c-267.06,52.18 -209.18,127.86 129.27,169.04 338.46,41.17 829.32,32.25 1096.38,-19.93 267.06,-52.18 209.19,-127.86 -129.26,-169.04 -338.46,-41.17 -829.32,-32.25 -1096.39,19.93z"/>
     <path id="48" class="fil3" d="M-915.59 -105.41c265.61,-51.89 753.83,-60.77 1090.45,-19.82 336.63,40.95 394.19,116.23 128.57,168.12 -265.62,51.9 -753.83,60.78 -1090.45,19.83 -336.63,-40.96 -394.19,-116.23 -128.57,-168.13zm-9.94 -1.2c-269.95,52.74 -211.45,129.24 130.66,170.86 342.12,41.62 838.29,32.6 1108.24,-20.15 269.95,-52.74 211.45,-129.24 -130.67,-170.86 -342.11,-41.62 -838.28,-32.6 -1108.23,20.15z"/>
     <path id="49" class="fil3" d="M-922.22 -106.21c268.51,-52.46 762.03,-61.44 1102.31,-20.04 340.28,41.4 398.47,117.49 129.97,169.95 -268.51,52.46 -762.03,61.43 -1102.31,20.04 -340.28,-41.4 -398.47,-117.49 -129.97,-169.95zm-9.94 -1.21c-272.83,53.31 -213.71,130.62 132.07,172.69 345.77,42.06 847.25,32.95 1120.08,-20.36 272.84,-53.31 213.71,-130.63 -132.06,-172.69 -345.77,-42.07 -847.25,-32.95 -1120.09,20.36z"/>
     <path id="50" class="fil3" d="M-928.84 -107.02c271.39,-53.03 770.22,-62.09 1114.16,-20.25 343.94,41.84 402.75,118.75 131.36,171.78 -271.39,53.02 -770.22,62.09 -1114.16,20.25 -343.94,-41.84 -402.76,-118.75 -131.36,-171.78zm-9.94 -1.21c-275.72,53.88 -215.97,132.01 133.46,174.52 349.43,42.51 856.22,33.3 1131.94,-20.58 275.72,-53.87 215.97,-132 -133.46,-174.51 -349.43,-42.51 -856.22,-33.3 -1131.94,20.57z"/>
     <path id="51" class="fil3" d="M-935.47 -107.82c274.28,-53.6 778.41,-62.76 1126.01,-20.47 347.61,42.28 407.04,120.01 132.77,173.6 -274.28,53.59 -778.42,62.76 -1126.02,20.47 -347.6,-42.29 -407.04,-120.01 -132.76,-173.6zm-9.94 -1.21c-278.61,54.44 -218.23,133.39 134.86,176.34 353.09,42.96 865.18,33.65 1143.79,-20.79 278.61,-54.44 218.24,-133.39 -134.85,-176.34 -353.09,-42.96 -865.19,-33.65 -1143.8,20.79z"/>
     <path id="52" class="fil3" d="M-942.09 -108.63c277.16,-54.16 786.6,-63.42 1137.86,-20.68 351.26,42.73 411.33,121.27 134.16,175.43 -277.16,54.15 -786.61,63.41 -1137.87,20.68 -351.25,-42.73 -411.32,-121.27 -134.15,-175.43zm-9.94 -1.21c-281.5,55 -220.49,134.77 136.25,178.17 356.75,43.4 874.15,34 1155.65,-21 281.5,-55 220.49,-134.78 -136.26,-178.18 -356.74,-43.39 -874.14,-33.99 -1155.64,21.01z"/>
     <path id="53" class="fil3" d="M-948.72 -109.43c280.05,-54.73 794.8,-64.08 1149.72,-20.9 354.92,43.17 415.61,122.53 135.56,177.25 -280.06,54.72 -794.8,64.08 -1149.72,20.9 -354.92,-43.17 -415.61,-122.54 -135.56,-177.25zm-9.94 -1.21c-284.38,55.56 -222.75,136.15 137.66,179.99 360.4,43.85 883.11,34.35 1167.49,-21.22 284.39,-55.56 222.76,-136.15 -137.65,-180 -360.41,-43.84 -883.11,-34.34 -1167.5,21.23z"/>
     <path id="54" class="fil3" d="M-955.34 -110.24c282.94,-55.29 802.99,-64.74 1161.57,-21.12 358.58,43.63 419.89,123.81 136.95,179.09 -282.94,55.28 -802.99,64.74 -1161.57,21.11 -358.58,-43.62 -419.89,-123.8 -136.95,-179.08zm-9.94 -1.21c-287.27,56.13 -225.02,137.54 139.05,181.83 364.06,44.29 892.08,34.69 1179.35,-21.44 287.27,-56.13 225.02,-137.54 -139.05,-181.83 -364.07,-44.29 -892.08,-34.69 -1179.35,21.44z"/>
     <path id="55" class="fil3" d="M-961.97 -111.05c285.83,-55.84 811.19,-65.39 1173.43,-21.33 362.23,44.07 424.17,125.07 138.35,180.92 -285.83,55.84 -811.19,65.39 -1173.43,21.33 -362.23,-44.07 -424.18,-125.07 -138.35,-180.92zm-9.94 -1.21c-290.16,56.7 -227.27,138.92 140.45,183.66 367.73,44.73 901.05,35.04 1191.2,-21.66 290.16,-56.69 227.28,-138.91 -140.44,-183.65 -367.73,-44.74 -901.05,-35.04 -1191.21,21.65z"/>
     <path id="56" class="fil3" d="M-968.59 -111.85c288.71,-56.41 819.38,-66.06 1185.27,-21.55 365.9,44.51 428.47,126.33 139.75,182.74 -288.71,56.41 -819.38,66.06 -1185.28,21.55 -365.89,-44.52 -428.46,-126.33 -139.74,-182.74zm-9.94 -1.21c-293.05,57.26 -229.54,140.3 141.84,185.48 371.39,45.18 910.01,35.39 1203.06,-21.87 293.04,-57.26 229.54,-140.3 -141.85,-185.48 -371.38,-45.18 -910.01,-35.39 -1203.05,21.87z"/>
     <path id="57" class="fil3" d="M-975.22 -112.66c291.6,-56.97 827.58,-66.72 1197.13,-21.76 369.56,44.96 432.75,127.59 141.15,184.57 -291.6,56.97 -827.58,66.72 -1197.13,21.76 -369.56,-44.96 -432.75,-127.59 -141.15,-184.57zm-9.94 -1.21c-295.93,57.82 -231.8,141.69 143.25,187.31 375.04,45.63 918.97,35.74 1214.9,-22.08 295.94,-57.83 231.81,-141.69 -143.24,-187.31 -375.04,-45.63 -918.97,-35.74 -1214.91,22.08z"/>
     <path id="58" class="fil3" d="M-981.84 -113.47c294.48,-57.54 835.76,-67.38 1208.98,-21.97 373.21,45.4 437.03,128.85 142.54,186.39 -294.49,57.54 -835.77,67.38 -1208.98,21.98 -373.21,-45.4 -437.03,-128.85 -142.54,-186.4zm-9.94 -1.2c-298.82,58.38 -234.06,143.06 144.64,189.13 378.7,46.07 927.94,36.09 1226.76,-22.3 298.82,-58.38 234.06,-143.06 -144.64,-189.13 -378.7,-46.07 -927.94,-36.09 -1226.76,22.3z"/>
     <path id="59" class="fil3" d="M-988.47 -114.27c297.38,-58.11 843.96,-68.04 1220.84,-22.19 376.87,45.85 441.31,130.12 143.94,188.22 -297.38,58.1 -843.97,68.04 -1220.84,22.19 -376.87,-45.85 -441.32,-130.12 -143.94,-188.22zm-9.94 -1.21c-301.7,58.95 -236.32,144.45 146.04,190.96 382.36,46.52 936.91,36.44 1238.61,-22.51 301.71,-58.95 236.33,-144.45 -146.03,-190.97 -382.36,-46.51 -936.91,-36.43 -1238.62,22.52z"/>
     <path id="60" class="fil3" d="M-995.09 -115.08c300.26,-58.67 852.15,-68.7 1232.68,-22.4 380.53,46.29 445.61,131.38 145.34,190.05 -300.26,58.66 -852.15,68.7 -1232.69,22.4 -380.53,-46.29 -445.6,-131.38 -145.33,-190.05zm-9.94 -1.21c-304.6,59.52 -238.59,145.83 147.43,192.8 386.02,46.96 945.88,36.78 1250.47,-22.74 304.59,-59.51 238.59,-145.83 -147.44,-192.79 -386.01,-46.96 -945.87,-36.78 -1250.46,22.73z"/>
     <path id="61" class="fil3" d="M-1001.72 -115.88c303.15,-59.24 860.35,-69.36 1244.54,-22.63 384.19,46.74 449.89,132.65 146.74,191.88 -303.15,59.23 -860.35,69.36 -1244.54,22.62 -384.19,-46.73 -449.89,-132.64 -146.74,-191.87zm-9.94 -1.21c-307.48,60.08 -240.84,147.21 148.84,194.62 389.67,47.4 954.83,37.13 1262.31,-22.95 307.49,-60.08 240.85,-147.21 -148.83,-194.62 -389.68,-47.4 -954.84,-37.13 -1262.32,22.95z"/>
     <path id="62" class="fil3" d="M-1008.34 -116.69c306.03,-59.8 868.54,-70.02 1256.39,-22.84 387.85,47.19 454.17,133.91 148.13,193.71 -306.03,59.79 -868.54,70.02 -1256.39,22.84 -387.85,-47.19 -454.17,-133.91 -148.13,-193.71zm-9.94 -1.21c-310.37,60.65 -243.11,148.6 150.23,196.45 393.34,47.85 963.8,37.48 1274.17,-23.16 310.37,-60.65 243.11,-148.6 -150.23,-196.45 -393.34,-47.85 -963.8,-37.48 -1274.17,23.16z"/>
     <path id="63" class="fil3" d="M-1014.97 -117.5c308.93,-60.36 876.74,-70.68 1268.25,-23.05 391.51,47.63 458.45,135.17 149.53,195.53 -308.93,60.36 -876.74,70.69 -1268.25,23.06 -391.51,-47.63 -458.46,-135.17 -149.53,-195.54zm-9.94 -1.2c-313.25,61.2 -245.37,149.97 151.63,198.27 397,48.3 972.77,37.83 1286.02,-23.38 313.26,-61.2 245.37,-149.97 -151.62,-198.27 -397,-48.3 -972.77,-37.83 -1286.03,23.38z"/>
     <path id="64" class="fil3" d="M-1021.6 -118.3c311.82,-60.93 884.94,-71.34 1280.1,-23.27 395.17,48.07 462.74,136.43 150.93,197.36 -311.81,60.92 -884.93,71.34 -1280.1,23.27 -395.16,-48.07 -462.74,-136.44 -150.93,-197.36zm-9.93 -1.21c-316.15,61.77 -247.63,151.36 153.02,200.1 400.66,48.74 981.74,38.18 1297.88,-23.59 316.14,-61.77 247.63,-151.36 -153.02,-200.1 -400.66,-48.74 -981.74,-38.18 -1297.88,23.59z"/>
     <path id="65" class="fil3" d="M-1028.22 -119.11c314.7,-61.49 893.13,-72 1291.95,-23.48 398.83,48.52 467.03,137.7 152.33,199.19 -314.7,61.48 -893.13,72 -1291.95,23.48 -398.83,-48.52 -467.03,-137.7 -152.33,-199.19zm-9.94 -1.21c-319.03,62.34 -249.89,152.75 154.42,201.93 404.32,49.19 990.71,38.53 1309.74,-23.81 319.03,-62.33 249.89,-152.74 -154.43,-201.92 -404.31,-49.19 -990.7,-38.53 -1309.73,23.8z"/>
     <path id="66" class="fil3" d="M-1034.85 -119.91c317.59,-62.06 901.32,-72.67 1303.81,-23.7 402.48,48.96 471.31,138.96 153.72,201.01 -317.58,62.05 -901.32,72.67 -1303.8,23.7 -402.49,-48.96 -471.31,-138.96 -153.73,-201.01zm-9.93 -1.21c-321.92,62.9 -252.16,154.12 155.82,203.75 407.97,49.64 999.66,38.88 1321.58,-24.02 321.92,-62.9 252.16,-154.12 -155.82,-203.76 -407.97,-49.63 -999.67,-38.87 -1321.58,24.03z"/>
     <path id="67" class="fil3" d="M-1041.47 -120.72c320.47,-62.62 909.51,-73.32 1315.66,-23.91 406.14,49.4 475.59,140.22 155.12,202.84 -320.47,62.61 -909.51,73.32 -1315.66,23.91 -406.14,-49.41 -475.59,-140.22 -155.12,-202.84zm-9.94 -1.21c-324.8,63.47 -254.41,155.51 157.22,205.59 411.63,50.07 1008.63,39.22 1333.44,-24.24 324.8,-63.47 254.41,-155.51 -157.22,-205.59 -411.63,-50.07 -1008.63,-39.22 -1333.44,24.24z"/>
     <path id="68" class="fil3" d="M-1048.1 -121.52c323.37,-63.19 917.71,-73.99 1327.51,-24.14 409.81,49.86 479.88,141.49 156.52,204.67 -323.36,63.18 -917.7,73.99 -1327.51,24.13 -409.8,-49.85 -479.88,-141.48 -156.52,-204.66zm-9.93 -1.21c-327.69,64.02 -256.68,156.88 158.61,207.41 415.29,50.52 1017.6,39.57 1345.29,-24.46 327.69,-64.03 256.68,-156.89 -158.61,-207.41 -415.3,-50.52 -1017.6,-39.57 -1345.29,24.46z"/>
     <path id="69" class="fil3" d="M-1054.72 -122.33c326.25,-63.75 925.9,-74.65 1339.36,-24.35 413.46,50.3 484.17,142.75 157.92,206.5 -326.25,63.74 -925.9,74.65 -1339.36,24.35 -413.47,-50.3 -484.17,-142.75 -157.92,-206.5zm-9.94 -1.21c-330.58,64.59 -258.94,158.27 160.01,209.24 418.96,50.97 1026.57,39.92 1357.15,-24.67 330.57,-64.59 258.93,-158.27 -160.02,-209.24 -418.95,-50.97 -1026.56,-39.92 -1357.14,24.67z"/>
     <path id="70" class="fil3" d="M-1061.35 -123.14c329.14,-64.31 934.1,-75.3 1351.22,-24.56 417.12,50.75 488.45,144.02 159.31,208.33 -329.13,64.31 -934.09,75.3 -1351.21,24.56 -417.12,-50.75 -488.45,-144.02 -159.32,-208.33zm-9.93 -1.21c-333.47,65.16 -261.2,159.66 161.41,211.07 422.61,51.41 1035.53,40.27 1368.99,-24.89 333.47,-65.15 261.2,-159.65 -161.41,-211.06 -422.61,-51.41 -1035.53,-40.27 -1368.99,24.88z"/>
     <path id="71" class="fil3" d="M-1067.97 -123.94c332.02,-64.88 942.29,-75.97 1363.07,-24.78 420.78,51.19 492.73,145.28 160.71,210.15 -332.02,64.88 -942.29,75.97 -1363.07,24.78 -420.78,-51.19 -492.73,-145.28 -160.71,-210.15zm-9.94 -1.21c-336.35,65.72 -263.46,161.03 162.81,212.89 426.27,51.86 1044.49,40.62 1380.85,-25.1 336.35,-65.72 263.46,-161.04 -162.81,-212.89 -426.27,-51.86 -1044.5,-40.62 -1380.85,25.1z"/>
     <path id="72" class="fil3" d="M-1074.6 -124.75c334.91,-65.44 950.49,-76.63 1374.92,-24.99 424.44,51.63 497.02,146.54 162.11,211.98 -334.91,65.44 -950.48,76.62 -1374.92,24.99 -424.44,-51.63 -497.01,-146.54 -162.11,-211.98zm-9.93 -1.21c-339.24,66.29 -265.73,162.42 164.2,214.72 429.93,52.3 1053.46,40.97 1392.7,-25.31 339.24,-66.29 265.72,-162.42 -164.2,-214.72 -429.93,-52.31 -1053.46,-40.97 -1392.7,25.31z"/>
     <path id="73" class="fil3" d="M-1081.22 -125.55c337.8,-66.01 958.67,-77.29 1386.77,-25.21 428.1,52.08 501.31,147.8 163.51,213.8 -337.8,66.01 -958.68,77.29 -1386.77,25.21 -428.1,-52.08 -501.31,-147.8 -163.51,-213.8zm-9.94 -1.21c-342.13,66.85 -267.98,163.8 165.6,216.54 433.59,52.75 1062.43,41.32 1404.56,-25.53 342.12,-66.85 267.98,-163.8 -165.61,-216.54 -433.58,-52.75 -1062.42,-41.32 -1404.55,25.53z"/>
     <path id="74" class="fil3" d="M-1087.85 -126.36c340.69,-66.57 966.87,-77.95 1398.63,-25.42 431.76,52.52 505.59,149.06 164.9,215.63 -340.68,66.57 -966.87,77.95 -1398.62,25.42 -431.76,-52.52 -505.59,-149.06 -164.91,-215.63zm-9.93 -1.21c-345.02,67.41 -270.25,165.18 167,218.38 437.24,53.19 1071.39,41.66 1416.4,-25.75 345.02,-67.41 270.25,-165.18 -167,-218.38 -437.24,-53.19 -1071.39,-41.66 -1416.4,25.75z"/>
     <path id="75" class="fil3" d="M-1094.47 -127.17c343.57,-67.13 975.06,-78.61 1410.48,-25.64 435.41,52.97 509.87,150.33 166.3,217.46 -343.57,67.14 -975.06,78.61 -1410.48,25.64 -435.42,-52.97 -509.87,-150.33 -166.3,-217.46zm-9.94 -1.21c-347.9,67.98 -272.51,166.57 168.4,220.21 440.9,53.63 1080.36,42.01 1428.26,-25.97 347.9,-67.97 272.5,-166.56 -168.4,-220.2 -440.91,-53.64 -1080.36,-42.01 -1428.26,25.96z"/>
     <path id="76" class="fil3" d="M-1101.1 -127.97c346.46,-67.7 983.26,-79.27 1422.34,-25.86 439.07,53.42 514.15,151.6 167.69,219.29 -346.45,67.7 -983.25,79.27 -1422.33,25.86 -439.07,-53.42 -514.15,-151.6 -167.7,-219.29zm-9.93 -1.21c-350.79,68.54 -274.77,167.94 169.79,222.03 444.56,54.08 1089.32,42.36 1440.11,-26.18 350.79,-68.54 274.77,-167.95 -169.79,-222.03 -444.57,-54.08 -1089.33,-42.36 -1440.11,26.18z"/>
     <path id="77" class="fil3" d="M-1107.72 -128.78c349.34,-68.26 991.45,-79.93 1434.18,-26.07 442.74,53.86 518.44,152.86 169.1,221.12 -349.35,68.26 -991.45,79.93 -1434.19,26.07 -442.73,-53.86 -518.44,-152.86 -169.09,-221.12zm-9.94 -1.21c-353.67,69.11 -277.03,169.33 171.19,223.86 448.23,54.53 1098.29,42.71 1451.97,-26.39 353.67,-69.11 277.03,-169.33 -171.2,-223.86 -448.22,-54.53 -1098.28,-42.71 -1451.96,26.39z"/>
     <path id="78" class="fil3" d="M-1114.35 -129.58c352.24,-68.83 999.65,-80.6 1446.04,-26.29 446.39,54.3 522.73,154.12 170.49,222.94 -352.23,68.83 -999.64,80.59 -1446.03,26.29 -446.4,-54.31 -522.73,-154.12 -170.5,-222.94zm-9.93 -1.21c-356.57,69.67 -279.3,170.71 172.59,225.68 451.88,54.97 1107.25,43.06 1463.81,-26.61 356.57,-69.67 279.29,-170.71 -172.59,-225.68 -451.88,-54.98 -1107.25,-43.06 -1463.81,26.61z"/>
     <path id="79" class="fil3" d="M-1120.97 -130.39c355.12,-69.39 1007.84,-81.25 1457.89,-26.5 450.05,54.75 527.01,155.38 171.89,224.77 -355.12,69.39 -1007.84,81.25 -1457.89,26.5 -450.05,-54.75 -527.01,-155.38 -171.89,-224.77zm-9.94 -1.21c-359.45,70.23 -281.55,172.09 173.99,227.51 455.54,55.42 1116.22,43.41 1475.67,-26.82 359.45,-70.24 281.55,-172.1 -173.99,-227.51 -455.54,-55.42 -1116.22,-43.41 -1475.67,26.82z"/>
     <path id="80" class="fil3" d="M-1127.6 -131.2c358.01,-69.95 1016.04,-81.91 1469.75,-26.71 453.71,55.19 531.29,156.64 173.28,226.59 -358,69.96 -1016.03,81.92 -1469.74,26.72 -453.71,-55.19 -531.29,-156.64 -173.29,-226.6zm-9.94 -1.21c-362.33,70.8 -283.81,173.48 175.39,229.34 459.2,55.87 1125.19,43.76 1487.52,-27.04 362.34,-70.79 283.82,-173.47 -175.38,-229.34 -459.2,-55.86 -1125.19,-43.75 -1487.53,27.04z"/>
     <path id="81" class="fil3" d="M-1134.22 -132c360.89,-70.52 1024.22,-82.58 1481.59,-26.94 457.37,55.65 535.58,157.92 174.69,228.43 -360.89,70.52 -1024.23,82.57 -1481.6,26.93 -457.37,-55.64 -535.58,-157.91 -174.68,-228.42zm-9.94 -1.21c-365.22,71.36 -286.08,174.86 176.78,231.17 462.86,56.3 1134.15,44.1 1499.38,-27.26 365.22,-71.36 286.07,-174.86 -176.78,-231.17 -462.86,-56.31 -1134.16,-44.1 -1499.38,27.26z"/>
     <path id="82" class="fil3" d="M-1140.85 -132.81c363.78,-71.08 1032.42,-83.23 1493.45,-27.15 461.03,56.09 539.87,159.18 176.08,230.26 -363.78,71.08 -1032.42,83.23 -1493.44,27.14 -461.03,-56.08 -539.87,-159.17 -176.09,-230.25zm-9.94 -1.21c-368.11,71.93 -288.33,176.24 178.18,233 466.52,56.75 1143.12,44.45 1511.23,-27.47 368.11,-71.93 288.34,-176.24 -178.18,-233 -466.51,-56.75 -1143.11,-44.45 -1511.23,27.47z"/>
     <path id="83" class="fil3" d="M-1147.47 -133.61c366.66,-71.65 1040.61,-83.9 1505.3,-27.37 464.69,56.53 544.15,160.44 177.48,232.08 -366.67,71.65 -1040.61,83.9 -1505.3,27.37 -464.69,-56.54 -544.15,-160.44 -177.48,-232.08zm-9.94 -1.21c-371,72.49 -290.6,177.62 179.58,234.82 470.17,57.2 1152.08,44.8 1523.08,-27.69 371,-72.49 290.6,-177.62 -179.58,-234.82 -470.18,-57.2 -1152.08,-44.8 -1523.08,27.69z"/>
     <path id="84" class="fil3" d="M-1154.1 -134.42c369.56,-72.21 1048.81,-84.56 1517.16,-27.58 468.34,56.98 548.43,161.7 178.88,233.91 -369.56,72.21 -1048.81,84.55 -1517.16,27.58 -468.35,-56.98 -548.43,-161.7 -178.88,-233.91zm-9.94 -1.21c-373.88,73.05 -292.86,179.01 180.98,236.65 473.83,57.64 1161.05,45.15 1534.93,-27.9 373.89,-73.06 292.86,-179.01 -180.97,-236.65 -473.84,-57.64 -1161.05,-45.15 -1534.94,27.9z"/>
     <path id="85" class="fil3" d="M-1160.72 -135.23c372.44,-72.77 1057,-85.21 1529,-27.79 472.01,57.42 552.72,162.96 180.28,235.74 -372.44,72.77 -1057,85.21 -1529.01,27.79 -472,-57.42 -552.71,-162.96 -180.27,-235.74zm-9.94 -1.2c-376.77,73.61 -295.12,180.38 182.37,238.47 477.5,58.09 1170.02,45.5 1546.79,-28.12 376.77,-73.61 295.12,-180.38 -182.37,-238.47 -477.5,-58.09 -1170.02,-45.5 -1546.79,28.12z"/>
     <path id="86" class="fil3" d="M-1167.35 -136.03c375.33,-73.34 1065.2,-85.88 1540.86,-28.01 475.67,57.86 557.01,164.23 181.68,237.56 -375.33,73.34 -1065.2,85.88 -1540.86,28.01 -475.67,-57.87 -557.01,-164.23 -181.68,-237.56zm-9.94 -1.21c-379.66,74.18 -297.38,181.77 183.77,240.3 481.16,58.54 1178.98,45.85 1558.64,-28.33 379.66,-74.18 297.39,-181.77 -183.77,-240.3 -481.15,-58.54 -1178.98,-45.85 -1558.64,28.33z"/>
     <path id="87" class="fil3" d="M-1173.97 -136.84c378.21,-73.9 1073.39,-86.53 1552.71,-28.22 479.32,58.31 561.29,165.49 183.07,239.39 -378.22,73.9 -1073.39,86.53 -1552.71,28.22 -479.33,-58.31 -561.29,-165.49 -183.07,-239.39zm-9.94 -1.21c-382.55,74.75 -299.65,183.15 185.17,242.13 484.81,58.98 1187.94,46.2 1570.49,-28.54 382.55,-74.75 299.64,-183.16 -185.17,-242.14 -484.81,-58.98 -1187.94,-46.19 -1570.49,28.55z"/>
     <path id="88" class="fil3" d="M-1180.6 -137.64c381.1,-74.47 1081.58,-87.2 1564.57,-28.44 482.98,58.75 565.57,166.75 184.47,241.21 -381.11,74.47 -1081.59,87.2 -1564.57,28.44 -482.98,-58.75 -565.57,-166.75 -184.47,-241.21zm-9.94 -1.21c-385.43,75.31 -301.9,184.53 186.57,243.95 488.47,59.43 1196.91,46.55 1582.34,-28.76 385.44,-75.31 301.91,-184.53 -186.56,-243.96 -488.47,-59.42 -1196.91,-46.54 -1582.35,28.77z"/>
     <path id="89" class="fil3" d="M-1187.22 -138.45c383.99,-75.03 1089.77,-87.86 1576.42,-28.66 486.64,59.21 569.85,168.02 185.86,243.05 -383.99,75.03 -1089.78,87.86 -1576.42,28.65 -486.64,-59.2 -569.85,-168.01 -185.86,-243.04zm-9.94 -1.21c-388.32,75.88 -304.17,185.92 187.96,245.79 492.13,59.87 1205.88,46.89 1594.2,-28.98 388.32,-75.88 304.17,-185.92 -187.96,-245.79 -492.13,-59.87 -1205.88,-46.89 -1594.2,28.98z"/>
     <path id="90" class="fil3" d="M-1193.85 -139.26c386.88,-75.59 1097.97,-88.51 1588.27,-28.87 490.3,59.65 574.14,169.28 187.27,244.87 -386.88,75.6 -1097.97,88.52 -1588.28,28.88 -490.3,-59.65 -574.14,-169.28 -187.26,-244.88zm-9.94 -1.21c-391.2,76.44 -306.43,187.3 189.36,247.62 495.79,60.31 1214.85,47.24 1606.05,-29.2 391.21,-76.43 306.43,-187.29 -189.36,-247.61 -495.78,-60.31 -1214.84,-47.24 -1606.05,29.19z"/>
     <path id="91" class="fil3" d="M-1200.47 -140.06c389.76,-76.16 1106.16,-89.18 1600.12,-29.09 493.96,60.09 578.43,170.54 188.66,246.7 -389.76,76.16 -1106.16,89.18 -1600.12,29.09 -493.96,-60.09 -578.43,-170.55 -188.66,-246.7zm-9.94 -1.21c-394.1,77 -308.69,188.68 190.76,249.44 499.44,60.76 1223.8,47.59 1617.9,-29.41 394.1,-77 308.69,-188.68 -190.76,-249.44 -499.45,-60.76 -1223.81,-47.59 -1617.9,29.41z"/>
     <path id="92" class="fil3" d="M-1207.1 -140.87c392.65,-76.72 1114.36,-89.84 1611.98,-29.3 497.62,60.54 582.71,171.81 190.06,248.53 -392.66,76.72 -1114.36,89.84 -1611.98,29.3 -497.62,-60.54 -582.71,-171.81 -190.06,-248.53zm-9.94 -1.21c-396.98,77.57 -310.95,190.07 192.16,251.27 503.1,61.21 1232.77,47.94 1629.75,-29.62 396.99,-77.57 310.96,-190.07 -192.15,-251.27 -503.11,-61.21 -1232.77,-47.94 -1629.76,29.62z"/>
     <path id="93" class="fil3" d="M-1213.72 -141.67c395.53,-77.29 1122.55,-90.5 1623.83,-29.52 501.27,60.98 586.99,173.07 191.45,250.35 -395.54,77.29 -1122.55,90.5 -1623.83,29.52 -501.28,-60.98 -586.99,-173.07 -191.45,-250.35zm-9.94 -1.21c-399.87,78.13 -313.22,191.44 193.55,253.09 506.77,61.65 1241.74,48.29 1641.61,-29.84 399.87,-78.13 313.21,-191.44 -193.55,-253.09 -506.77,-61.65 -1241.74,-48.29 -1641.61,29.84z"/>
     <path id="94" class="fil3" d="M-1220.35 -142.48c398.43,-77.85 1130.75,-91.16 1635.68,-29.73 504.94,61.42 591.28,174.33 192.86,252.18 -398.43,77.85 -1130.75,91.16 -1635.69,29.73 -504.93,-61.43 -591.28,-174.33 -192.85,-252.18zm-9.94 -1.21c-402.75,78.7 -315.47,192.83 194.95,254.92 510.43,62.1 1250.71,48.64 1653.46,-30.05 402.76,-78.7 315.48,-192.83 -194.94,-254.93 -510.43,-62.09 -1250.71,-48.63 -1653.47,30.06z"/>
     <path id="95" class="fil3" d="M-1226.97 -143.29c401.31,-78.41 1138.94,-91.82 1647.53,-29.94 508.6,61.87 595.57,175.59 194.25,254 -401.31,78.42 -1138.94,91.83 -1647.53,29.95 -508.6,-61.87 -595.57,-175.59 -194.25,-254.01zm-9.94 -1.21c-405.65,79.26 -317.74,194.22 196.35,256.76 514.08,62.54 1259.67,48.98 1665.31,-30.28 405.64,-79.26 317.74,-194.21 -196.35,-256.75 -514.08,-62.54 -1259.67,-48.98 -1665.31,30.27z"/>
     <path id="96" class="fil3" d="M-1233.6 -144.09c404.2,-78.98 1147.13,-92.48 1659.39,-30.17 512.25,62.32 599.85,176.86 195.65,255.84 -404.2,78.98 -1147.14,92.48 -1659.39,30.17 -512.25,-62.32 -599.85,-176.86 -195.65,-255.84zm-9.94 -1.21c-408.53,79.82 -319.99,195.59 197.75,258.58 517.74,62.98 1268.63,49.33 1677.16,-30.49 408.54,-79.82 320,-195.59 -197.74,-258.58 -517.74,-62.98 -1268.64,-49.33 -1677.17,30.49z"/>
     <path id="97" class="fil3" d="M-1240.22 -144.9c407.08,-79.54 1155.32,-93.14 1671.24,-30.38 515.91,62.77 604.13,178.13 197.04,257.67 -407.09,79.54 -1155.33,93.14 -1671.24,30.38 -515.91,-62.77 -604.13,-178.13 -197.04,-257.67zm-9.94 -1.21c-411.42,80.39 -322.26,196.98 199.14,260.41 521.4,63.43 1277.6,49.68 1689.02,-30.7 411.42,-80.39 322.26,-196.98 -199.14,-260.41 -521.4,-63.43 -1277.6,-49.68 -1689.02,30.7z"/>
     <path id="98" class="fil3" d="M-1246.85 -145.7c409.97,-80.11 1163.52,-93.81 1683.09,-30.6 519.58,63.21 608.42,179.39 198.45,259.49 -409.98,80.11 -1163.52,93.81 -1683.1,30.6 -519.57,-63.21 -608.41,-179.39 -198.44,-259.49zm-9.94 -1.21c-414.3,80.95 -324.52,198.35 200.54,262.23 525.06,63.88 1286.57,50.03 1700.87,-30.92 414.31,-80.95 324.53,-198.36 -200.53,-262.23 -525.06,-63.88 -1286.57,-50.03 -1700.88,30.92z"/>
     <path id="99" class="fil3" d="M-1253.47 -146.51c412.86,-80.67 1171.71,-94.46 1694.94,-30.81 523.23,63.65 612.7,180.65 199.84,261.32 -412.86,80.67 -1171.71,94.46 -1694.94,30.81 -523.24,-63.65 -612.71,-180.65 -199.84,-261.32zm-9.94 -1.21c-417.2,81.52 -326.78,199.74 201.93,264.06 528.72,64.32 1295.54,50.38 1712.73,-31.13 417.19,-81.52 326.78,-199.74 -201.94,-264.06 -528.72,-64.32 -1295.53,-50.38 -1712.72,31.13z"/>
     <path id="100" class="fil3" d="M-1260.1 -147.32c415.75,-81.23 1179.91,-95.12 1706.8,-31.02 526.89,64.1 616.99,181.91 201.24,263.14 -415.75,81.24 -1179.91,95.13 -1706.8,31.03 -526.89,-64.1 -616.99,-181.91 -201.24,-263.15zm-9.94 -1.2c-420.08,82.07 -329.04,201.12 203.34,265.88 532.37,64.77 1304.5,50.73 1724.57,-31.35 420.08,-82.08 329.05,-201.12 -203.33,-265.88 -532.38,-64.77 -1304.5,-50.73 -1724.58,31.35z"/>
     <path id="101" class="fil3" d="M-1266.73 -148.12c418.64,-81.8 1188.11,-95.79 1718.66,-31.24 530.55,64.54 621.27,183.17 202.63,264.97 -418.63,81.8 -1188.1,95.79 -1718.65,31.24 -530.55,-64.54 -621.27,-183.17 -202.64,-264.97zm-9.93 -1.21c-422.97,82.64 -331.31,202.5 204.73,267.71 536.04,65.21 1313.46,51.08 1736.43,-31.56 422.97,-82.64 331.31,-202.5 -204.73,-267.72 -536.04,-65.21 -1313.47,-51.07 -1736.43,31.57z"/>
     <path id="102" class="fil3" d="M-1273.35 -148.93c421.52,-82.36 1196.3,-96.44 1730.5,-31.46 534.21,64.99 625.56,184.44 204.04,266.81 -421.53,82.36 -1196.3,96.44 -1730.51,31.45 -534.2,-64.99 -625.55,-184.44 -204.03,-266.8zm-9.94 -1.21c-425.85,83.21 -333.56,203.89 206.13,269.55 539.7,65.65 1322.43,51.42 1748.29,-31.78 425.85,-83.21 333.56,-203.89 -206.13,-269.55 -539.7,-65.65 -1322.43,-51.43 -1748.29,31.78z"/>
     <path id="103" class="fil3" d="M-1279.98 -149.73c424.42,-82.93 1204.5,-97.11 1742.36,-31.68 537.87,65.44 629.84,185.71 205.43,268.63 -424.41,82.93 -1204.49,97.11 -1742.35,31.67 -537.87,-65.43 -629.85,-185.7 -205.44,-268.62zm-9.93 -1.21c-428.74,83.77 -335.83,205.26 207.52,271.37 543.36,66.1 1331.4,51.77 1760.14,-32 428.74,-83.77 335.83,-205.27 -207.53,-271.37 -543.35,-66.1 -1331.39,-51.78 -1760.13,32z"/>
     <path id="104" class="fil3" d="M-1286.6 -150.54c427.3,-83.49 1212.68,-97.77 1754.21,-31.89 541.53,65.88 634.13,186.97 206.83,270.46 -427.3,83.49 -1212.69,97.76 -1754.21,31.89 -541.53,-65.88 -634.13,-186.97 -206.83,-270.46zm-9.94 -1.21c-431.63,84.34 -338.09,206.65 208.93,273.2 547.01,66.54 1340.36,52.12 1771.99,-32.21 431.62,-84.34 338.09,-206.65 -208.93,-273.2 -547.01,-66.55 -1340.36,-52.13 -1771.99,32.21z"/>
     <path id="105" class="fil3" d="M-1293.23 -151.35c430.19,-84.05 1220.88,-98.42 1766.07,-32.1 545.18,66.32 638.41,188.23 208.22,272.28 -430.18,84.06 -1220.88,98.43 -1766.06,32.11 -545.18,-66.33 -638.41,-188.23 -208.23,-272.29zm-9.93 -1.2c-434.52,84.9 -340.35,208.03 210.32,275.02 550.67,66.99 1349.32,52.47 1783.84,-32.43 434.52,-84.9 340.35,-208.03 -210.32,-275.02 -550.67,-66.99 -1349.33,-52.48 -1783.84,32.43z"/>
     <path id="106" class="fil3" d="M-1299.85 -152.15c433.07,-84.62 1229.07,-99.09 1777.92,-32.32 548.84,66.77 642.69,189.49 209.62,274.11 -433.07,84.62 -1229.07,99.09 -1777.92,32.32 -548.84,-66.77 -642.69,-189.49 -209.62,-274.11zm-9.94 -1.21c-437.4,85.46 -342.61,209.41 211.72,276.85 554.33,67.44 1358.29,52.82 1795.7,-32.64 437.4,-85.47 342.61,-209.42 -211.72,-276.85 -554.34,-67.44 -1358.3,-52.83 -1795.7,32.64z"/>
     <path id="107" class="fil3" d="M-1306.48 -152.96c435.96,-85.18 1237.27,-99.75 1789.77,-32.53 552.51,67.21 646.98,190.75 211.02,275.94 -435.96,85.18 -1237.26,99.74 -1789.77,32.53 -552.5,-67.21 -646.98,-190.76 -211.02,-275.94zm-9.93 -1.21c-440.29,86.03 -344.88,210.8 213.11,278.68 557.99,67.88 1367.26,53.17 1807.55,-32.86 440.29,-86.02 344.88,-210.79 -213.12,-278.67 -557.99,-67.89 -1367.25,-53.18 -1807.54,32.85z"/>
     <path id="108" class="fil3" d="M-1313.1 -153.76c438.85,-85.75 1245.46,-100.41 1801.62,-32.75 556.16,67.66 651.26,192.02 212.42,277.76 -438.85,85.75 -1245.46,100.41 -1801.62,32.75 -556.16,-67.66 -651.27,-192.02 -212.42,-277.76zm-9.94 -1.21c-443.18,86.59 -347.13,212.18 214.52,280.5 561.65,68.33 1376.22,53.52 1819.4,-33.07 443.17,-86.59 347.13,-212.18 -214.52,-280.51 -561.65,-68.32 -1376.22,-53.52 -1819.4,33.08z"/>
     <path id="109" class="fil3" d="M-1319.73 -154.57c441.74,-86.31 1253.66,-101.07 1813.48,-32.96 559.82,68.1 655.55,193.28 213.81,279.59 -441.73,86.31 -1253.65,101.07 -1813.47,32.96 -559.82,-68.1 -655.55,-193.28 -213.82,-279.59zm-9.93 -1.21c-446.07,87.16 -349.4,213.56 215.91,282.34 565.31,68.77 1385.19,53.86 1831.25,-33.29 446.07,-87.16 349.4,-213.57 -215.91,-282.34 -565.31,-68.77 -1385.19,-53.86 -1831.25,33.29z"/>
     <path id="110" class="fil3" d="M-1326.35 -155.38c444.62,-86.87 1261.85,-101.73 1825.33,-33.18 563.48,68.55 659.83,194.55 215.21,281.42 -444.62,86.88 -1261.85,101.73 -1825.33,33.18 -563.48,-68.55 -659.83,-194.54 -215.21,-281.42zm-9.94 -1.21c-448.95,87.73 -351.66,214.95 217.31,284.17 568.97,69.21 1394.15,54.21 1843.11,-33.51 448.95,-87.72 351.66,-214.94 -217.31,-284.16 -568.97,-69.22 -1394.16,-54.21 -1843.11,33.5z"/>
     <path id="111" class="fil3" d="M-1332.98 -156.18c447.51,-87.44 1270.04,-102.39 1837.18,-33.4 567.14,69 664.12,195.81 216.61,283.25 -447.5,87.44 -1270.04,102.39 -1837.18,33.4 -567.13,-69 -664.11,-195.81 -216.61,-283.25zm-9.93 -1.21c-451.84,88.28 -353.92,216.33 218.7,285.99 572.63,69.66 1403.12,54.56 1854.96,-33.72 451.84,-88.29 353.92,-216.33 -218.7,-285.99 -572.63,-69.66 -1403.13,-54.57 -1854.96,33.72z"/>
     <path id="112" class="fil3" d="M-1339.6 -156.99c450.39,-88 1278.23,-103.05 1849.03,-33.61 570.8,69.44 668.4,197.07 218.01,285.08 -450.4,88 -1278.24,103.05 -1849.03,33.61 -570.8,-69.44 -668.41,-197.07 -218.01,-285.08zm-9.94 -1.21c-454.73,88.85 -356.18,217.71 220.1,287.82 576.29,70.11 1412.09,54.91 1866.82,-33.94 454.72,-88.84 356.18,-217.7 -220.11,-287.81 -576.28,-70.11 -1412.08,-54.92 -1866.81,33.93z"/>
     <path id="113" class="fil3" d="M-1346.23 -157.79c453.29,-88.57 1286.43,-103.72 1860.89,-33.83 574.45,69.88 672.69,198.33 219.4,286.9 -453.28,88.57 -1286.42,103.71 -1860.88,33.83 -574.46,-69.89 -672.69,-198.34 -219.41,-286.9zm-9.93 -1.21c-457.62,89.41 -358.45,219.09 221.5,289.64 579.94,70.55 1421.05,55.26 1878.66,-34.15 457.61,-89.41 358.44,-219.09 -221.5,-289.64 -579.94,-70.56 -1421.05,-55.27 -1878.66,34.15z"/>
     <path id="114" class="fil3" d="M-1352.85 -158.6c456.17,-89.13 1294.62,-104.37 1872.74,-34.04 578.11,70.33 676.97,199.6 220.8,288.73 -456.17,89.13 -1294.62,104.37 -1872.74,34.04 -578.11,-70.33 -676.97,-199.6 -220.8,-288.73zm-9.94 -1.21c-460.5,89.98 -360.7,220.47 222.9,291.47 583.6,71 1430.02,55.61 1890.52,-34.36 460.5,-89.98 360.7,-220.48 -222.9,-291.47 -583.61,-71 -1430.02,-55.62 -1890.52,34.36z"/>
     <path id="115" class="fil4" d="M-1359.48 -159.41c459.06,-89.69 1302.82,-105.03 1884.59,-34.25 581.78,70.77 681.26,200.86 222.2,290.55 -459.05,89.7 -1302.81,105.04 -1884.59,34.26 -581.77,-70.77 -681.25,-200.86 -222.2,-290.56zm-9.93 -1.2c-463.39,90.54 -362.97,221.85 224.29,293.29 587.27,71.45 1438.98,55.96 1902.37,-34.58 463.39,-90.54 362.97,-221.85 -224.29,-293.3 -587.27,-71.44 -1438.99,-55.96 -1902.37,34.59z"/>
     <path id="116" class="fil5" d="M-1366.1 -160.21c461.94,-90.26 1311.01,-105.69 1896.44,-34.48 585.44,71.23 685.54,202.13 223.6,292.39 -461.94,90.26 -1311.01,105.69 -1896.44,34.47 -585.44,-71.22 -685.55,-202.12 -223.6,-292.38zm-9.94 -1.21c-466.27,91.11 -365.23,223.24 225.69,295.13 590.93,71.88 1447.95,56.3 1914.23,-34.8 466.27,-91.11 365.22,-223.24 -225.7,-295.13 -590.92,-71.88 -1447.95,-56.31 -1914.22,34.8z"/>
     <path id="117" class="fil6" d="M-1372.73 -161.02c464.83,-90.82 1319.21,-106.35 1908.3,-34.69 589.09,71.67 689.83,203.39 224.99,294.22 -464.83,90.82 -1319.2,106.35 -1908.29,34.69 -589.09,-71.67 -689.83,-203.39 -225,-294.22zm-9.94 -1.21c-469.16,91.67 -367.48,224.62 227.1,296.96 594.58,72.33 1456.91,56.65 1926.07,-35.01 469.16,-91.68 367.49,-224.62 -227.09,-296.96 -594.58,-72.33 -1456.91,-56.66 -1926.08,35.01z"/>
     <path id="118" class="fil7" d="M-1379.35 -161.82c467.72,-91.39 1327.4,-107.02 1920.15,-34.91 592.75,72.11 694.11,204.65 226.39,296.04 -467.72,91.39 -1327.4,107.02 -1920.15,34.91 -592.75,-72.11 -694.11,-204.66 -226.39,-296.04zm-9.94 -1.21c-472.05,92.23 -369.75,226 228.49,298.78 598.24,72.78 1465.88,57 1937.93,-35.23 472.05,-92.23 369.75,-226 -228.49,-298.78 -598.24,-72.78 -1465.88,-57.01 -1937.93,35.23z"/>
     <path id="119" class="fil8" d="M-1385.98 -162.63c470.61,-91.95 1335.59,-107.67 1932,-35.12 596.41,72.56 698.4,205.92 227.79,297.87 -470.6,91.95 -1335.59,107.67 -1932,35.12 -596.41,-72.56 -698.39,-205.92 -227.79,-297.87zm-9.94 -1.21c-474.93,92.8 -372.01,227.39 229.89,300.61 601.9,73.22 1474.85,57.35 1949.78,-35.44 474.94,-92.8 372.01,-227.39 -229.88,-300.61 -601.9,-73.23 -1474.85,-57.36 -1949.79,35.44z"/>
     <path id="120" class="fil9" d="M-1392.6 -163.43c473.49,-92.52 1343.78,-108.34 1943.85,-35.34 600.07,73 702.68,207.18 229.19,299.69 -473.49,92.52 -1343.78,108.34 -1943.85,35.34 -600.07,-73 -702.68,-207.18 -229.19,-299.69zm-9.94 -1.21c-477.82,93.36 -374.27,228.76 231.28,302.43 605.56,73.67 1483.81,57.7 1961.64,-35.66 477.82,-93.36 374.27,-228.76 -231.29,-302.43 -605.55,-73.67 -1483.81,-57.71 -1961.63,35.66z"/>
     <path id="121" class="fil10" d="M-1399.23 -164.24c476.38,-93.08 1351.98,-109 1955.71,-35.55 603.73,73.44 706.96,208.44 230.58,301.52 -476.37,93.08 -1351.97,109 -1955.7,35.55 -603.73,-73.45 -706.97,-208.44 -230.59,-301.52zm-9.94 -1.21c-480.71,93.93 -376.53,230.15 232.69,304.26 609.21,74.12 1492.77,58.05 1973.48,-35.87 480.71,-93.93 376.54,-230.15 -232.68,-304.26 -609.22,-74.12 -1492.78,-58.06 -1973.49,35.87z"/>
     <path id="122" class="fil11" d="M-1405.85 -165.05c479.26,-93.64 1360.17,-109.65 1967.56,-35.76 607.38,73.89 711.25,209.7 231.98,303.35 -479.27,93.64 -1360.17,109.65 -1967.56,35.76 -607.39,-73.89 -711.25,-209.7 -231.98,-303.35zm-9.94 -1.21c-483.6,94.49 -378.8,231.54 234.08,306.09 612.87,74.56 1501.74,58.41 1985.34,-36.09 483.6,-94.49 378.79,-231.53 -234.08,-306.09 -612.88,-74.55 -1501.74,-58.4 -1985.34,36.09z"/>
     <path id="123" class="fil12" d="M-1412.48 -165.85c482.16,-94.21 1368.37,-110.32 1979.41,-35.98 611.05,74.33 715.54,210.96 233.39,305.17 -482.16,94.21 -1368.37,110.32 -1979.42,35.98 -611.04,-74.33 -715.53,-210.97 -233.38,-305.17zm-9.94 -1.21c-486.48,95.05 -381.05,232.91 235.48,307.92 616.54,75 1510.71,58.75 1997.19,-36.31 486.49,-95.05 381.06,-232.91 -235.47,-307.92 -616.54,-75 -1510.71,-58.75 -1997.2,36.31z"/>
     <path id="124" class="fil13" d="M-1419.1 -166.66c485.04,-94.77 1376.56,-110.98 1991.26,-36.2 614.71,74.79 719.82,212.23 234.78,307.01 -485.04,94.77 -1376.56,110.98 -1991.26,36.19 -614.71,-74.78 -719.82,-212.23 -234.78,-307zm-9.94 -1.21c-489.37,95.62 -383.32,234.3 236.87,309.75 620.2,75.45 1519.68,59.1 2009.05,-36.52 489.37,-95.62 383.32,-234.3 -236.88,-309.75 -620.19,-75.45 -1519.67,-59.1 -2009.04,36.52z"/>
     <path id="125" class="fil13" d="M-1425.73 -167.47c487.93,-95.33 1384.76,-111.63 2003.12,-36.41 618.36,75.23 724.1,213.5 236.18,308.83 -487.93,95.34 -1384.76,111.64 -2003.12,36.42 -618.37,-75.23 -724.11,-213.5 -236.18,-308.84zm-9.94 -1.2c-492.25,96.18 -385.58,235.67 238.28,311.57 623.85,75.89 1528.63,59.45 2020.89,-36.74 492.26,-96.18 385.58,-235.68 -238.27,-311.57 -623.85,-75.89 -1528.64,-59.45 -2020.9,36.74z"/>
     <path id="126" class="fil14" d="M-1432.35 -168.27c490.81,-95.9 1392.94,-112.3 2014.97,-36.63 622.02,75.67 728.39,214.76 237.57,310.66 -490.81,95.9 -1392.95,112.3 -2014.97,36.63 -622.02,-75.67 -728.39,-214.76 -237.57,-310.66zm-9.94 -1.21c-495.15,96.75 -387.84,237.06 239.67,313.4 627.51,76.34 1537.6,59.8 2032.75,-36.95 495.14,-96.75 387.84,-237.06 -239.67,-313.4 -627.51,-76.34 -1537.61,-59.8 -2032.75,36.95z"/>
     <path id="127" class="fil14" d="M-1438.98 -169.08c493.7,-96.46 1401.14,-112.96 2026.83,-36.84 625.68,76.12 732.67,216.02 238.97,312.49 -493.71,96.46 -1401.15,112.96 -2026.83,36.84 -625.68,-76.12 -732.67,-216.02 -238.97,-312.49zm-9.94 -1.21c-498.03,97.31 -390.1,238.45 241.07,315.23 631.17,76.79 1546.57,60.15 2044.6,-37.17 498.04,-97.31 390.11,-238.44 -241.06,-315.22 -631.17,-76.79 -1546.57,-60.15 -2044.61,37.16z"/>
     <path id="128" class="fil15" d="M-1445.6 -169.88c496.59,-97.03 1409.33,-113.62 2038.67,-37.06 629.34,76.56 736.96,217.28 240.37,314.31 -496.59,97.03 -1409.33,113.62 -2038.68,37.06 -629.34,-76.56 -736.95,-217.28 -240.36,-314.31zm-9.94 -1.21c-500.92,97.87 -392.37,239.82 242.46,317.05 634.83,77.23 1555.54,60.5 2056.46,-37.38 500.92,-97.87 392.36,-239.82 -242.47,-317.05 -634.82,-77.23 -1555.53,-60.5 -2056.45,37.38z"/>
     <path id="129" class="fil15" d="M-1452.23 -170.69c499.48,-97.59 1417.53,-114.28 2050.53,-37.27 633,77 741.24,218.54 241.77,316.14 -499.48,97.59 -1417.53,114.28 -2050.53,37.27 -633,-77.01 -741.24,-218.55 -241.77,-316.14zm-9.94 -1.21c-503.8,98.44 -394.62,241.21 243.87,318.88 638.48,77.68 1564.5,60.85 2068.3,-37.59 503.81,-98.44 394.63,-241.21 -243.86,-318.89 -638.49,-77.67 -1564.5,-60.84 -2068.31,37.6z"/>
     <path id="130" class="fil15" d="M-1458.85 -171.5c502.36,-98.15 1425.72,-114.94 2062.38,-37.48 636.66,77.45 745.53,219.81 243.16,317.96 -502.36,98.16 -1425.72,114.95 -2062.38,37.49 -636.66,-77.45 -745.53,-219.81 -243.16,-317.97zm-9.94 -1.2c-506.7,99 -396.89,242.59 245.26,320.71 642.14,78.12 1573.47,61.19 2080.16,-37.82 506.69,-99 396.89,-242.59 -245.26,-320.71 -642.15,-78.12 -1573.47,-61.19 -2080.16,37.82z"/>
     <path id="131" class="fil15" d="M-1465.48 -172.3c505.25,-98.72 1433.92,-115.6 2074.24,-37.71 640.31,77.9 749.81,221.08 244.56,319.8 -505.25,98.72 -1433.92,115.6 -2074.24,37.7 -640.32,-77.89 -749.81,-221.07 -244.56,-319.79zm-9.94 -1.21c-509.58,99.57 -399.15,243.97 246.66,322.54 645.81,78.56 1582.43,61.54 2092.01,-38.03 509.59,-99.57 399.15,-243.97 -246.65,-322.54 -645.81,-78.56 -1582.44,-61.54 -2092.02,38.03z"/>
     <path id="132" class="fil15" d="M-1472.1 -173.11c508.13,-99.28 1442.11,-116.26 2086.08,-37.92 643.98,78.34 754.1,222.34 245.96,321.63 -508.14,99.28 -1442.11,116.26 -2086.09,37.92 -643.97,-78.35 -754.09,-222.34 -245.95,-321.63zm-9.94 -1.21c-512.47,100.14 -401.41,245.36 248.05,324.37 649.47,79.01 1591.4,61.89 2103.87,-38.25 512.47,-100.13 401.41,-245.35 -248.06,-324.36 -649.46,-79.01 -1591.39,-61.89 -2103.86,38.24z"/>
     <path id="133" class="fil15" d="M-1478.73 -173.91c511.03,-99.85 1450.31,-116.93 2097.94,-38.14 647.64,78.79 758.38,223.6 247.36,323.45 -511.03,99.85 -1450.31,116.93 -2097.94,38.14 -647.64,-78.79 -758.38,-223.6 -247.36,-323.45zm-9.94 -1.21c-515.35,100.69 -403.67,246.73 249.46,326.19 653.12,79.45 1600.36,62.24 2115.71,-38.46 515.36,-100.7 403.68,-246.74 -249.45,-326.19 -653.12,-79.46 -1600.36,-62.24 -2115.72,38.46z"/>
     <path id="134" class="fil15" d="M-1485.35 -174.72c513.91,-100.41 1458.49,-117.58 2109.79,-38.35 651.29,79.23 762.66,224.86 248.75,325.28 -513.91,100.41 -1458.5,117.58 -2109.79,38.35 -651.3,-79.23 -762.67,-224.87 -248.75,-325.28zm-9.94 -1.21c-518.24,101.26 -405.94,248.12 250.85,328.02 656.78,79.9 1609.33,62.59 2127.57,-38.67 518.24,-101.26 405.93,-248.12 -250.85,-328.02 -656.78,-79.9 -1609.33,-62.59 -2127.57,38.67z"/>
     <path id="135" class="fil16" d="M-1491.98 -175.52c516.8,-100.98 1466.69,-118.25 2121.65,-38.57 654.95,79.68 766.95,226.13 250.15,327.1 -516.8,100.98 -1466.7,118.25 -2121.65,38.57 -654.95,-79.68 -766.95,-226.13 -250.15,-327.1zm-9.94 -1.21c-521.13,101.82 -408.19,249.5 252.25,329.84 660.44,80.35 1618.3,62.94 2139.42,-38.89 521.13,-101.82 408.2,-249.5 -252.24,-329.84 -660.44,-80.35 -1618.3,-62.94 -2139.43,38.89z"/>
     <path id="136" class="fil16" d="M-1498.6 -176.33c519.68,-101.54 1474.88,-118.91 2133.49,-38.78 658.62,80.12 771.24,227.39 251.55,328.93 -519.68,101.54 -1474.88,118.9 -2133.5,38.78 -658.61,-80.12 -771.23,-227.39 -251.54,-328.93zm-9.94 -1.21c-524.02,102.39 -410.46,250.88 253.64,331.67 664.1,80.79 1627.26,63.29 2151.28,-39.1 524.02,-102.39 410.46,-250.89 -253.64,-331.68 -664.1,-80.79 -1627.26,-63.28 -2151.28,39.11z"/>
     <path id="137" class="fil16" d="M-1505.23 -177.14c522.57,-102.1 1483.08,-119.56 2145.35,-39 662.27,80.57 775.52,228.66 252.95,330.77 -522.58,102.1 -1483.08,119.56 -2145.35,38.99 -662.28,-80.56 -775.52,-228.65 -252.95,-330.76zm-9.94 -1.21c-526.9,102.96 -412.72,252.27 255.04,333.51 667.76,81.23 1636.23,63.63 2163.13,-39.33 526.91,-102.95 412.72,-252.26 -255.04,-333.5 -667.76,-81.23 -1636.22,-63.63 -2163.13,39.32z"/>
     <path id="138" class="fil16" d="M-1511.86 -177.94c525.47,-102.67 1491.28,-120.23 2157.21,-39.22 665.93,81.02 779.8,229.92 254.34,332.59 -525.46,102.67 -1491.27,120.23 -2157.2,39.21 -665.93,-81.01 -779.81,-229.91 -254.35,-332.58zm-9.93 -1.21c-529.79,103.51 -414.98,253.65 256.44,335.33 671.42,81.68 1645.19,63.98 2174.98,-39.54 529.79,-103.52 414.98,-253.65 -256.44,-335.33 -671.42,-81.68 -1645.19,-63.98 -2174.98,39.54z"/>
     <path id="139" class="fil16" d="M-1518.48 -178.75c528.35,-103.23 1499.47,-120.89 2169.06,-39.43 669.59,81.46 784.09,231.18 255.74,334.42 -528.35,103.23 -1499.47,120.88 -2169.06,39.43 -669.59,-81.46 -784.09,-231.18 -255.74,-334.42zm-9.94 -1.21c-532.68,104.08 -417.24,255.03 257.84,337.16 675.08,82.12 1654.16,64.33 2186.84,-39.75 532.67,-104.08 417.24,-255.03 -257.84,-337.16 -675.08,-82.13 -1654.16,-64.33 -2186.84,39.75z"/>
     <path id="140" class="fil16" d="M-1525.11 -179.55c531.24,-103.8 1507.67,-121.55 2180.91,-39.65 673.25,81.9 788.38,232.44 257.14,336.24 -531.23,103.8 -1507.66,121.55 -2180.91,39.65 -673.25,-81.91 -788.37,-232.45 -257.14,-336.24zm-9.93 -1.21c-535.57,104.64 -419.51,256.41 259.23,338.98 678.74,82.57 1663.13,64.68 2198.69,-39.97 535.57,-104.64 419.5,-256.41 -259.23,-338.98 -678.74,-82.57 -1663.13,-64.68 -2198.69,39.97z"/>
     <path id="141" class="fil16" d="M-1531.73 -180.36c534.12,-104.36 1515.86,-122.21 2192.76,-39.86 676.91,82.35 792.66,233.71 258.54,338.07 -534.12,104.36 -1515.86,122.21 -2192.76,39.86 -676.91,-82.35 -792.66,-233.71 -258.54,-338.07zm-9.94 -1.21c-538.45,105.21 -421.76,257.8 260.63,340.81 682.4,83.02 1672.09,65.03 2210.55,-40.18 538.45,-105.21 421.76,-257.8 -260.64,-340.81 -682.39,-83.02 -1672.08,-65.03 -2210.54,40.18z"/>
     <path id="142" class="fil16" d="M-1538.36 -181.17c537.01,-104.92 1524.05,-122.87 2204.62,-40.07 680.57,82.79 796.94,234.97 259.93,339.9 -537.01,104.92 -1524.05,122.86 -2204.61,40.07 -680.57,-82.79 -796.94,-234.97 -259.94,-339.9zm-9.93 -1.21c-541.34,105.78 -424.03,259.18 262.03,342.64 686.05,83.46 1681.05,65.38 2222.39,-40.4 541.34,-105.77 424.03,-259.17 -262.03,-342.63 -686.05,-83.47 -1681.05,-65.38 -2222.39,40.39z"/>
     <path id="143" class="fil16" d="M-1544.98 -181.97c539.9,-105.49 1532.24,-123.53 2216.47,-40.29 684.22,83.24 801.22,236.23 261.33,341.72 -539.9,105.49 -1532.25,123.53 -2216.47,40.29 -684.23,-83.24 -801.23,-236.23 -261.33,-341.72zm-9.94 -1.21c-544.23,106.33 -426.28,260.56 263.43,344.46 689.71,83.91 1690.02,65.73 2234.25,-40.61 544.22,-106.34 426.28,-260.56 -263.43,-344.47 -689.71,-83.9 -1690.02,-65.72 -2234.25,40.62z"/>
     <path id="144" class="fil16" d="M-1551.61 -182.78c542.79,-106.05 1540.44,-124.19 2228.33,-40.5 687.88,83.68 805.51,237.49 262.72,343.55 -542.78,106.05 -1540.43,124.19 -2228.32,40.5 -687.88,-83.68 -805.51,-237.49 -262.73,-343.55zm-9.93 -1.21c-547.12,106.9 -428.55,261.94 264.82,346.3 693.37,84.35 1698.99,66.07 2246.1,-40.83 547.12,-106.91 428.55,-261.95 -264.82,-346.3 -693.38,-84.35 -1698.99,-66.07 -2246.1,40.83z"/>
     <path id="145" class="fil16" d="M-1558.23 -183.59c545.67,-106.61 1548.63,-124.85 2240.17,-40.72 691.55,84.13 809.8,238.76 264.13,345.38 -545.67,106.62 -1548.63,124.85 -2240.18,40.72 -691.54,-84.12 -809.79,-238.76 -264.12,-345.38zm-9.94 -1.2c-550,107.46 -430.81,263.32 266.22,348.12 697.03,84.79 1707.95,66.42 2257.96,-41.05 550,-107.46 430.81,-263.32 -266.23,-348.12 -697.03,-84.79 -1707.95,-66.42 -2257.95,41.05z"/>
     <path id="146" class="fil16" d="M-1564.86 -184.39c548.56,-107.18 1556.83,-125.51 2252.03,-40.94 695.2,84.58 814.08,240.03 265.52,347.21 -548.55,107.18 -1556.82,125.51 -2252.02,40.94 -695.21,-84.58 -814.08,-240.03 -265.53,-347.21zm-9.93 -1.21c-552.89,108.03 -433.08,264.71 267.62,349.95 700.69,85.24 1716.91,66.77 2269.8,-41.26 552.89,-108.03 433.07,-264.71 -267.62,-349.95 -700.69,-85.24 -1716.91,-66.77 -2269.8,41.26z"/>
     <path id="147" class="fil16" d="M-1571.48 -185.2c551.44,-107.74 1565.02,-126.17 2263.88,-41.15 698.86,85.02 818.36,241.29 266.92,349.03 -551.45,107.75 -1565.02,126.18 -2263.88,41.16 -698.86,-85.02 -818.37,-241.29 -266.92,-349.04zm-9.94 -1.21c-555.77,108.6 -435.33,266.09 269.02,351.78 704.35,85.69 1725.88,67.12 2281.66,-41.48 555.77,-108.59 435.33,-266.08 -269.02,-351.77 -704.35,-85.69 -1725.88,-67.12 -2281.66,41.47z"/>
     <path id="148" class="fil16" d="M-1578.11 -186c554.34,-108.31 1573.22,-126.83 2275.74,-41.37 702.52,85.46 822.65,242.55 268.31,350.86 -554.33,108.31 -1573.21,126.83 -2275.73,41.37 -702.52,-85.47 -822.65,-242.55 -268.32,-350.86zm-9.93 -1.21c-558.67,109.16 -437.6,267.47 270.41,353.6 708.01,86.13 1734.85,67.47 2293.51,-41.69 558.66,-109.16 437.6,-267.47 -270.41,-353.6 -708.01,-86.13 -1734.85,-67.47 -2293.51,41.69z"/>
     <path id="149" class="fil16" d="M-1584.73 -186.81c557.22,-108.87 1581.41,-127.49 2287.58,-41.58 706.18,85.91 826.94,243.81 269.72,352.69 -557.22,108.87 -1581.41,127.49 -2287.59,41.58 -706.17,-85.91 -826.93,-243.81 -269.71,-352.69zm-9.94 -1.21c-561.55,109.72 -439.85,268.86 271.81,355.43 711.67,86.58 1743.82,67.82 2305.37,-41.9 561.55,-109.73 439.85,-268.86 -271.81,-355.43 -711.67,-86.58 -1743.82,-67.82 -2305.37,41.9z"/>
     <path id="150" class="fil16" d="M-1591.36 -187.61c560.11,-109.44 1589.6,-128.16 2299.44,-41.8 709.84,86.35 831.22,245.07 271.11,354.51 -560.1,109.44 -1589.6,128.16 -2299.43,41.8 -709.84,-86.35 -831.22,-245.08 -271.12,-354.51zm-9.93 -1.21c-564.44,110.28 -442.12,270.23 273.2,357.25 715.33,87.03 1752.78,68.17 2317.22,-42.12 564.44,-110.28 442.12,-270.23 -273.21,-357.26 -715.32,-87.02 -1752.78,-68.16 -2317.21,42.13z"/>
     <path id="151" class="fil16" d="M-1597.98 -188.42c562.99,-110 1597.79,-128.82 2311.29,-42.01 713.5,86.8 835.5,246.34 272.51,356.34 -562.99,110 -1597.79,128.81 -2311.29,42.01 -713.5,-86.8 -835.5,-246.34 -272.51,-356.34zm-9.94 -1.21c-567.32,110.85 -444.38,271.62 274.61,359.09 718.98,87.46 1761.74,68.51 2329.07,-42.34 567.32,-110.85 444.38,-271.62 -274.61,-359.09 -718.98,-87.46 -1761.74,-68.51 -2329.07,42.34z"/>
     <path id="152" class="fil16" d="M-1604.61 -189.23c565.88,-110.56 1605.99,-129.47 2323.15,-42.23 717.15,87.25 839.79,247.61 273.9,358.18 -565.88,110.56 -1605.98,129.47 -2323.14,42.23 -717.15,-87.25 -839.79,-247.61 -273.91,-358.18zm-9.93 -1.21c-570.22,111.42 -446.64,273 276,360.92 722.64,87.91 1770.71,68.86 2340.92,-42.56 570.21,-111.41 446.64,-273 -276,-360.91 -722.65,-87.91 -1770.71,-68.86 -2340.92,42.55z"/>
     <path id="153" class="fil16" d="M-1611.23 -190.03c568.77,-111.13 1614.18,-130.14 2334.99,-42.45 720.82,87.69 844.08,248.87 275.31,360 -568.77,111.13 -1614.18,130.14 -2335,42.45 -720.81,-87.69 -844.07,-248.87 -275.3,-360zm-9.94 -1.21c-573.1,111.98 -448.9,274.38 277.4,362.74 726.31,88.36 1779.68,69.21 2352.78,-42.77 573.1,-111.98 448.9,-274.38 -277.4,-362.74 -726.31,-88.36 -1779.68,-69.21 -2352.78,42.77z"/>
     <path id="154" class="fil16" d="M-1617.86 -190.84c571.66,-111.69 1622.38,-130.79 2346.85,-42.66 724.48,88.14 848.36,250.13 276.7,361.83 -571.65,111.69 -1622.37,130.79 -2346.84,42.66 -724.48,-88.14 -848.36,-250.13 -276.71,-361.83zm-9.93 -1.21c-575.99,112.54 -451.17,275.77 278.79,364.57 729.97,88.8 1788.65,69.56 2364.63,-42.98 575.99,-112.55 451.17,-275.77 -278.8,-364.57 -729.96,-88.8 -1788.64,-69.56 -2364.62,42.98z"/>
     <path id="155" class="fil16" d="M-1624.48 -191.64c574.54,-112.26 1630.57,-131.46 2358.7,-42.88 728.13,88.58 852.64,251.39 278.1,363.65 -574.54,112.26 -1630.57,131.46 -2358.7,42.88 -728.13,-88.58 -852.64,-251.39 -278.1,-363.65zm-9.94 -1.21c-578.87,113.1 -453.42,277.14 280.2,366.39 733.62,89.25 1797.6,69.91 2376.48,-43.2 578.87,-113.1 453.42,-277.14 -280.2,-366.39 -733.62,-89.25 -1797.61,-69.91 -2376.48,43.2z"/>
     <path id="156" class="fil16" d="M-1631.11 -192.45c577.43,-112.82 1638.77,-132.12 2370.56,-43.09 731.79,89.02 856.92,252.65 279.49,365.48 -577.42,112.82 -1638.76,132.12 -2370.55,43.09 -731.79,-89.02 -856.93,-252.66 -279.5,-365.48zm-9.94 -1.21c-581.75,113.67 -455.68,278.53 281.6,368.22 737.28,89.7 1806.57,70.26 2388.33,-43.41 581.76,-113.67 455.69,-278.53 -281.59,-368.22 -737.28,-89.7 -1806.57,-70.26 -2388.34,43.41z"/>
     <path id="157" class="fil16" d="M-1637.73 -193.26c580.31,-113.38 1646.95,-132.77 2382.4,-43.3 735.46,89.47 861.22,253.92 280.9,367.3 -580.32,113.39 -1646.96,132.78 -2382.41,43.31 -735.45,-89.47 -861.21,-253.92 -280.89,-367.31zm-9.94 -1.21c-584.65,114.24 -457.95,279.92 282.99,370.05 740.94,90.14 1815.54,70.61 2400.19,-43.63 584.64,-114.23 457.95,-279.91 -282.99,-370.05 -740.94,-90.13 -1815.54,-70.6 -2400.19,43.63z"/>
     <path id="158" class="fil16" d="M-1644.36 -194.06c583.21,-113.96 1655.15,-133.44 2394.26,-43.53 739.11,89.92 865.5,255.19 282.29,369.14 -583.2,113.95 -1655.14,133.44 -2394.25,43.52 -739.11,-89.91 -865.5,-255.18 -282.3,-369.13zm-9.94 -1.21c-587.53,114.8 -460.2,281.29 284.39,371.88 744.6,90.58 1824.51,70.95 2412.04,-43.85 587.54,-114.8 460.21,-281.29 -284.39,-371.88 -744.59,-90.58 -1824.5,-70.95 -2412.04,43.85z"/>
     <path id="159" class="fil16" d="M-1650.98 -194.87c586.09,-114.52 1663.34,-134.1 2406.11,-43.74 742.77,90.36 869.78,256.45 283.69,370.97 -586.09,114.51 -1663.34,134.1 -2406.11,43.73 -742.77,-90.36 -869.78,-256.44 -283.69,-370.96zm-9.94 -1.21c-590.42,115.37 -462.47,282.68 285.79,373.71 748.25,91.03 1833.47,71.3 2423.89,-44.06 590.42,-115.37 462.47,-282.68 -285.79,-373.71 -748.26,-91.03 -1833.47,-71.3 -2423.89,44.06z"/>
     <path id="160" class="fil17" d="M-1657.61 -195.67c588.98,-115.09 1671.54,-134.76 2417.97,-43.96 746.43,90.81 874.06,257.71 285.09,372.79 -588.98,115.08 -1671.54,134.76 -2417.97,43.96 -746.43,-90.81 -874.07,-257.71 -285.09,-372.79zm-9.94 -1.21c-593.3,115.92 -464.73,284.05 287.19,375.53 751.91,91.47 1842.43,71.65 2435.74,-44.28 593.31,-115.93 464.73,-284.06 -287.18,-375.53 -751.92,-91.47 -1842.44,-71.65 -2435.75,44.28z"/>
     <path id="161" class="fil18" d="M-1664.23 -196.48c591.86,-115.65 1679.73,-135.42 2429.82,-44.17 750.08,91.25 878.35,258.97 286.48,374.62 -591.86,115.64 -1679.73,135.42 -2429.82,44.17 -750.08,-91.25 -878.35,-258.98 -286.48,-374.62zm-9.94 -1.21c-596.2,116.49 -466.99,285.44 288.58,377.36 755.58,91.92 1851.4,72 2447.6,-44.49 596.19,-116.49 466.99,-285.44 -288.58,-377.36 -755.58,-91.92 -1851.4,-72 -2447.6,44.49z"/>
     <path id="162" class="fil19" d="M-1670.86 -197.29c594.75,-116.21 1687.93,-136.08 2441.67,-44.38 753.75,91.7 882.64,260.24 287.89,376.44 -594.76,116.21 -1687.93,136.09 -2441.68,44.39 -753.74,-91.7 -882.63,-260.24 -287.88,-376.45zm-9.94 -1.21c-599.08,117.06 -469.25,286.83 289.98,379.19 759.24,92.37 1860.37,72.35 2459.45,-44.71 599.09,-117.05 469.26,-286.82 -289.98,-379.18 -759.23,-92.37 -1860.36,-72.35 -2459.45,44.7z"/>
     <path id="163" class="fil20" d="M-1677.48 -198.09c597.64,-116.78 1696.12,-136.74 2453.52,-44.6 757.4,92.14 886.92,261.5 289.28,378.27 -597.64,116.77 -1696.12,136.74 -2453.52,44.6 -757.41,-92.14 -886.92,-261.5 -289.28,-378.27zm-9.94 -1.21c-601.97,117.62 -471.52,288.2 291.38,381.01 762.89,92.81 1869.33,72.7 2471.3,-44.92 601.97,-117.62 471.52,-288.21 -291.38,-381.01 -762.89,-92.81 -1869.33,-72.7 -2471.3,44.92z"/>
     <path id="164" class="fil21" d="M-1684.11 -198.9c600.53,-117.34 1704.31,-137.4 2465.38,-44.81 761.06,92.58 891.2,262.76 290.68,380.1 -600.53,117.33 -1704.32,137.4 -2465.38,44.81 -761.06,-92.58 -891.2,-262.76 -290.68,-380.1zm-9.94 -1.21c-604.85,118.19 -473.77,289.59 292.78,382.84 766.55,93.26 1878.3,73.05 2483.15,-45.13 604.86,-118.19 473.78,-289.59 -292.77,-382.85 -766.55,-93.25 -1878.3,-73.04 -2483.16,45.14z"/>
     <path id="165" class="fil22" d="M-1690.73 -199.7c603.41,-117.91 1712.5,-138.07 2477.23,-45.03 764.72,93.03 895.48,264.02 292.07,381.92 -603.41,117.9 -1712.51,138.06 -2477.23,45.03 -764.72,-93.03 -895.49,-264.02 -292.07,-381.92zm-9.94 -1.21c-607.75,118.74 -476.04,290.97 294.17,384.67 770.21,93.69 1887.26,73.39 2495.01,-45.36 607.74,-118.75 476.04,-290.97 -294.17,-384.67 -770.21,-93.7 -1887.27,-73.39 -2495.01,45.36z"/>
     <path id="166" class="fil23" d="M-1697.36 -200.51c606.3,-118.47 1720.7,-138.72 2489.08,-45.25 768.38,93.48 899.78,265.29 293.48,383.76 -606.3,118.46 -1720.7,138.72 -2489.09,45.24 -768.38,-93.47 -899.77,-265.29 -293.47,-383.75zm-9.94 -1.21c-610.63,119.31 -478.3,292.35 295.57,386.5 773.87,94.14 1896.23,73.74 2506.86,-45.57 610.63,-119.31 478.3,-292.35 -295.56,-386.5 -773.87,-94.14 -1896.23,-73.74 -2506.87,45.57z"/>
     <path id="167" class="fil24" d="M-1703.98 -201.32c609.18,-119.03 1728.89,-139.38 2500.93,-45.46 772.04,93.92 904.06,266.55 294.87,385.58 -609.19,119.03 -1728.89,139.39 -2500.93,45.47 -772.04,-93.93 -904.06,-266.56 -294.87,-385.59zm-9.94 -1.2c-613.52,119.87 -480.56,293.73 296.96,388.32 777.53,94.59 1905.2,74.09 2518.72,-45.79 613.52,-119.87 480.56,-293.73 -296.97,-388.32 -777.53,-94.59 -1905.19,-74.09 -2518.71,45.79z"/>
     <path id="168" class="fil25" d="M-1710.61 -202.12c612.08,-119.6 1737.09,-140.05 2512.79,-45.68 775.7,94.37 908.34,267.82 296.27,387.41 -612.08,119.59 -1737.09,140.04 -2512.79,45.68 -775.7,-94.37 -908.34,-267.82 -296.27,-387.41zm-9.94 -1.21c-616.4,120.44 -482.82,295.12 298.37,390.15 781.19,95.03 1914.16,74.44 2530.56,-46 616.41,-120.44 482.83,-295.12 -298.36,-390.15 -781.19,-95.04 -1914.16,-74.44 -2530.57,46z"/>
     <path id="169" class="fil26" d="M-1717.23 -202.93c614.96,-120.16 1745.28,-140.7 2524.64,-45.89 779.35,94.81 912.62,269.08 297.66,389.24 -614.96,120.15 -1745.28,140.7 -2524.64,45.89 -779.36,-94.81 -912.63,-269.08 -297.66,-389.24zm-9.94 -1.21c-619.29,121.01 -485.09,296.5 299.76,391.98 784.85,95.48 1923.13,74.79 2542.42,-46.21 619.29,-121.01 485.08,-296.5 -299.76,-391.98 -784.85,-95.48 -1923.13,-74.79 -2542.42,46.21z"/>
     <path id="170" class="fil27" d="M-1723.86 -203.73c617.85,-120.73 1753.48,-141.37 2536.49,-46.11 783.02,95.25 916.92,270.34 299.07,391.06 -617.85,120.72 -1753.48,141.37 -2536.5,46.11 -783.01,-95.26 -916.91,-270.34 -299.06,-391.06zm-9.94 -1.21c-622.18,121.56 -487.34,297.88 301.16,393.8 788.51,95.93 1932.09,75.14 2554.27,-46.43 622.18,-121.57 487.35,-297.88 -301.15,-393.8 -788.51,-95.93 -1932.1,-75.14 -2554.28,46.43z"/>
     <path id="171" class="fil28" d="M-1730.48 -204.54c620.73,-121.29 1761.67,-142.03 2548.34,-46.32 786.68,95.7 921.2,271.6 300.46,392.89 -620.73,121.28 -1761.67,142.02 -2548.34,46.32 -786.68,-95.7 -921.2,-271.6 -300.46,-392.89zm-9.94 -1.21c-625.07,122.13 -489.61,299.26 302.55,395.63 792.17,96.37 1941.06,75.49 2566.13,-46.64 625.07,-122.13 489.61,-299.27 -302.56,-395.64 -792.16,-96.37 -1941.05,-75.48 -2566.12,46.65z"/>
     <path id="172" class="fil28" d="M-1737.11 -205.35c623.63,-121.85 1769.86,-142.68 2560.2,-46.54 790.33,96.15 925.48,272.87 301.86,394.72 -623.63,121.85 -1769.87,142.69 -2560.2,46.54 -790.34,-96.14 -925.48,-272.87 -301.86,-394.72zm-9.94 -1.2c-627.95,122.69 -491.87,300.64 303.96,397.46 795.82,96.81 1950.02,75.83 2577.97,-46.87 627.96,-122.69 491.87,-300.64 -303.95,-397.46 -795.82,-96.81 -1950.02,-75.83 -2577.98,46.87z"/>
     <path id="173" class="fil29" d="M-1743.73 -206.15c626.51,-122.42 1778.05,-143.35 2572.05,-46.76 793.99,96.6 929.76,274.14 303.25,396.55 -626.51,122.41 -1778.06,143.35 -2572.05,46.76 -793.99,-96.6 -929.77,-274.14 -303.25,-396.55zm-9.94 -1.21c-630.84,123.26 -494.13,302.03 305.35,399.29 799.48,97.26 1958.99,76.18 2589.83,-47.08 630.84,-123.26 494.13,-302.03 -305.35,-399.29 -799.48,-97.26 -1958.99,-76.18 -2589.83,47.08z"/>
     <path id="174" class="fil29" d="M-1750.36 -206.96c629.4,-122.98 1786.25,-144.01 2583.91,-46.97 797.65,97.04 934.04,275.4 304.65,398.38 -629.4,122.97 -1786.25,144 -2583.91,46.97 -797.65,-97.04 -934.05,-275.4 -304.65,-398.38zm-9.94 -1.21c-633.73,123.83 -496.39,303.41 306.75,401.12 803.14,97.7 1967.96,76.53 2601.68,-47.29 633.73,-123.83 496.4,-303.41 -306.74,-401.12 -803.15,-97.71 -1967.96,-76.53 -2601.69,47.29z"/>
     <path id="175" class="fil29" d="M-1756.99 -207.76c632.29,-123.55 1794.45,-144.67 2595.76,-47.19 801.31,97.48 938.34,276.66 306.05,400.2 -632.28,123.54 -1794.44,144.67 -2595.76,47.19 -801.31,-97.48 -938.33,-276.66 -306.05,-400.2zm-9.93 -1.21c-636.62,124.39 -498.66,304.79 308.14,402.94 806.8,98.15 1976.92,76.88 2613.54,-47.51 636.62,-124.39 498.65,-304.79 -308.15,-402.94 -806.8,-98.15 -1976.92,-76.88 -2613.53,47.51z"/>
     <path id="176" class="fil30" d="M-1763.61 -208.57c635.17,-124.11 1802.64,-145.33 2607.61,-47.4 804.97,97.93 942.62,277.92 307.45,402.03 -635.17,124.1 -1802.64,145.33 -2607.61,47.4 -804.97,-97.93 -942.62,-277.92 -307.45,-402.03zm-9.94 -1.21c-639.5,124.95 -500.91,306.18 309.55,404.77 810.46,98.6 1985.88,77.23 2625.38,-47.72 639.51,-124.96 500.92,-306.18 -309.54,-404.77 -810.46,-98.6 -1985.88,-77.23 -2625.39,47.72z"/>
     <path id="177" class="fil30" d="M-1770.24 -209.38c638.06,-124.67 1810.84,-145.99 2619.47,-47.61 808.63,98.37 946.9,279.18 308.84,403.85 -638.06,124.68 -1810.83,145.99 -2619.46,47.62 -808.63,-98.37 -946.9,-279.19 -308.85,-403.86zm-9.93 -1.21c-642.39,125.52 -503.18,307.56 310.94,406.6 814.12,99.04 1994.85,77.58 2637.24,-47.94 642.39,-125.51 503.18,-307.55 -310.94,-406.59 -814.12,-99.04 -1994.85,-77.58 -2637.24,47.93z"/>
     <path id="178" class="fil30" d="M-1776.86 -210.18c640.95,-125.24 1819.03,-146.65 2631.32,-47.83 812.28,98.81 951.18,280.45 310.24,405.68 -640.95,125.24 -1819.03,146.65 -2631.32,47.83 -812.29,-98.82 -951.19,-280.45 -310.24,-405.68zm-9.94 -1.21c-645.28,126.08 -505.44,308.94 312.34,408.42 817.78,99.49 2003.82,77.93 2649.1,-48.15 645.27,-126.08 505.43,-308.94 -312.34,-408.43 -817.78,-99.48 -2003.82,-77.92 -2649.1,48.16z"/>
     <path id="179" class="fil30" d="M-1783.49 -210.99c643.84,-125.8 1827.23,-147.31 2643.17,-48.04 815.95,99.26 955.48,281.71 311.64,407.51 -643.83,125.8 -1827.22,147.31 -2643.17,48.04 -815.94,-99.26 -955.47,-281.71 -311.64,-407.51zm-9.93 -1.21c-648.17,126.65 -507.7,310.33 313.73,410.26 821.44,99.93 2012.79,78.27 2660.95,-48.38 648.16,-126.64 507.7,-310.32 -313.74,-410.25 -821.43,-99.93 -2012.78,-78.27 -2660.94,48.37z"/>
     <path id="180" class="fil30" d="M-1790.11 -211.79c646.72,-126.37 1835.41,-147.97 2655.02,-48.27 819.61,99.71 959.76,282.98 313.04,409.34 -646.72,126.37 -1835.42,147.97 -2655.02,48.26 -819.61,-99.7 -959.76,-282.97 -313.04,-409.33zm-9.94 -1.21c-651.05,127.21 -509.96,311.7 315.14,412.08 825.09,100.37 2021.74,78.62 2672.8,-48.59 651.05,-127.21 509.96,-311.7 -315.14,-412.08 -825.09,-100.37 -2021.75,-78.62 -2672.8,48.59z"/>
     <path id="181" class="fil30" d="M-1796.74 -212.6c649.61,-126.93 1843.61,-148.63 2666.88,-48.48 823.26,100.16 964.04,284.24 314.43,411.17 -649.61,126.93 -1843.61,148.63 -2666.87,48.48 -823.27,-100.16 -964.04,-284.24 -314.44,-411.17zm-9.93 -1.21c-653.94,127.77 -512.23,313.09 316.53,413.91 828.75,100.82 2030.71,78.97 2684.65,-48.8 653.94,-127.78 512.22,-313.09 -316.53,-413.91 -828.75,-100.82 -2030.71,-78.97 -2684.65,48.8z"/>
     <path id="182" class="fil30" d="M-1803.36 -213.41c652.49,-127.49 1851.8,-149.29 2678.73,-48.69 826.92,100.6 968.32,285.5 315.83,412.99 -652.5,127.5 -1851.8,149.3 -2678.73,48.7 -826.92,-100.6 -968.33,-285.5 -315.83,-413zm-9.94 -1.2c-656.82,128.33 -514.48,314.46 317.93,415.73 832.41,101.27 2039.68,79.32 2696.51,-49.02 656.82,-128.33 514.48,-314.46 -317.93,-415.73 -832.42,-101.27 -2039.68,-79.32 -2696.51,49.02z"/>
     <path id="183" class="fil31" d="M-1809.99 -214.21c655.39,-128.06 1860,-149.95 2690.58,-48.91 830.59,101.04 972.62,286.76 317.23,414.82 -655.38,128.06 -1859.99,149.95 -2690.58,48.91 -830.58,-101.04 -972.61,-286.77 -317.23,-414.82zm-9.93 -1.21c-659.72,128.9 -516.75,315.85 319.32,417.56 836.07,101.71 2048.65,79.67 2708.36,-49.23 659.71,-128.9 516.75,-315.85 -319.32,-417.56 -836.08,-101.71 -2048.65,-79.67 -2708.36,49.23z"/>
     <path id="184" class="fil31" d="M-1816.61 -215.02c658.27,-128.62 1868.19,-150.61 2702.43,-49.12 834.24,101.49 976.9,288.03 318.63,416.65 -658.27,128.62 -1868.19,150.61 -2702.43,49.12 -834.25,-101.49 -976.9,-288.03 -318.63,-416.65zm-9.94 -1.21c-662.6,129.47 -519.01,317.24 320.72,419.39 839.74,102.16 2057.62,80.02 2720.22,-49.44 662.6,-129.47 519,-317.24 -320.73,-419.39 -839.73,-102.16 -2057.61,-80.02 -2720.21,49.44z"/>
     <path id="185" class="fil31" d="M-1823.24 -215.82c661.16,-129.19 1876.39,-151.28 2714.29,-49.34 837.9,101.93 981.18,289.29 320.02,418.47 -661.15,129.19 -1876.38,151.28 -2714.28,49.34 -837.9,-101.93 -981.18,-289.29 -320.03,-418.47zm-9.93 -1.21c-665.49,130.03 -521.27,318.61 322.12,421.21 843.39,102.61 2066.57,80.37 2732.06,-49.66 665.49,-130.03 521.27,-318.61 -322.12,-421.22 -843.39,-102.6 -2066.58,-80.36 -2732.06,49.67z"/>
     <path id="186" class="fil31" d="M-1829.86 -216.63c664.04,-129.75 1884.58,-151.93 2726.14,-49.55 841.56,102.37 985.46,290.55 321.42,420.3 -664.05,129.75 -1884.58,151.93 -2726.14,49.55 -841.56,-102.38 -985.47,-290.55 -321.42,-420.3zm-9.94 -1.21c-668.37,130.59 -523.53,320 323.52,423.05 847.05,103.04 2075.54,80.71 2743.92,-49.88 668.37,-130.6 523.53,-320 -323.52,-423.05 -847.05,-103.04 -2075.54,-80.71 -2743.92,49.88z"/>
     <path id="187" class="fil31" d="M-1836.49 -217.44c666.93,-130.31 1892.78,-152.59 2737.99,-49.77 845.22,102.83 989.75,291.82 322.82,422.13 -666.93,130.32 -1892.77,152.6 -2737.99,49.78 -845.22,-102.83 -989.75,-291.82 -322.82,-422.14zm-9.93 -1.2c-671.27,131.15 -525.8,321.37 324.91,424.87 850.71,103.49 2084.51,81.06 2755.77,-50.1 671.26,-131.16 525.79,-321.38 -324.91,-424.87 -850.71,-103.49 -2084.51,-81.06 -2755.77,50.1z"/>
     <path id="188" class="fil31" d="M-1843.11 -218.24c669.82,-130.88 1900.96,-153.26 2749.84,-49.99 848.88,103.27 994.04,293.08 324.22,423.96 -669.82,130.88 -1900.97,153.26 -2749.84,49.99 -848.88,-103.27 -994.04,-293.09 -324.22,-423.96zm-9.94 -1.21c-674.15,131.72 -528.05,322.76 326.31,426.7 854.37,103.94 2093.48,81.41 2767.63,-50.31 674.15,-131.72 528.05,-322.76 -326.32,-426.7 -854.36,-103.94 -2093.47,-81.41 -2767.62,50.31z"/>
     <path id="189" class="fil31" d="M-1849.74 -219.05c672.71,-131.44 1909.16,-153.91 2761.7,-50.2 852.54,103.72 998.32,294.35 325.61,425.79 -672.7,131.44 -1909.15,153.91 -2761.69,50.2 -852.54,-103.72 -998.32,-294.35 -325.62,-425.79zm-9.93 -1.21c-677.04,132.29 -530.32,324.15 327.71,428.53 858.02,104.38 2102.44,81.76 2779.47,-50.52 677.04,-132.29 530.32,-324.15 -327.71,-428.53 -858.02,-104.38 -2102.44,-81.76 -2779.47,50.52z"/>
     <path id="190" class="fil31" d="M-1856.36 -219.85c675.59,-132.01 1917.35,-154.58 2773.55,-50.42 856.19,104.16 1002.6,295.61 327.01,427.61 -675.59,132.01 -1917.35,154.58 -2773.55,50.42 -856.2,-104.16 -1002.6,-295.61 -327.01,-427.61zm-9.94 -1.21c-679.92,132.85 -532.58,325.52 329.11,430.35 861.68,104.83 2111.4,82.11 2791.33,-50.74 679.92,-132.85 532.57,-325.53 -329.11,-430.35 -861.69,-104.83 -2111.41,-82.11 -2791.33,50.74z"/>
     <path id="191" class="fil31" d="M-1862.99 -220.66c678.48,-132.57 1925.55,-155.24 2785.4,-50.63 859.86,104.6 1006.89,296.87 328.41,429.44 -678.48,132.57 -1925.54,155.24 -2785.4,50.63 -859.85,-104.6 -1006.89,-296.87 -328.41,-429.44zm-9.93 -1.21c-682.81,133.42 -534.84,326.91 330.5,432.18 865.34,105.28 2120.37,82.46 2803.18,-50.95 682.81,-133.42 534.84,-326.91 -330.5,-432.18 -865.35,-105.28 -2120.37,-82.46 -2803.18,50.95z"/>
     <path id="192" class="fil31" d="M-1869.61 -221.47c681.36,-133.13 1933.74,-155.89 2797.25,-50.84 863.52,105.05 1011.18,298.13 329.81,431.26 -681.37,133.14 -1933.74,155.9 -2797.25,50.85 -863.52,-105.05 -1011.18,-298.13 -329.81,-431.27zm-9.94 -1.2c-685.7,133.97 -537.1,328.29 331.9,434 869.01,105.72 2129.34,82.81 2815.04,-51.17 685.69,-133.98 537.1,-328.29 -331.91,-434.01 -869,-105.71 -2129.33,-82.8 -2815.03,51.18z"/>
     <path id="193" class="fil31" d="M-1876.24 -222.27c684.26,-133.7 1941.94,-156.56 2809.11,-51.07 867.17,105.5 1015.46,299.4 331.2,433.1 -684.25,133.7 -1941.93,156.56 -2809.1,51.06 -867.17,-105.49 -1015.46,-299.4 -331.21,-433.09zm-9.94 -1.21c-688.58,134.54 -539.36,329.67 333.31,435.84 872.66,106.16 2138.3,83.15 2826.88,-51.39 688.59,-134.54 539.36,-329.67 -333.3,-435.84 -872.66,-106.16 -2138.3,-83.15 -2826.89,51.39z"/>
     <path id="194" class="fil31" d="M-1882.86 -223.08c687.14,-134.26 1950.13,-157.22 2820.96,-51.28 870.83,105.94 1019.74,300.67 332.6,434.93 -687.14,134.26 -1950.13,157.22 -2820.96,51.28 -870.83,-105.95 -1019.74,-300.67 -332.6,-434.93zm-9.94 -1.21c-691.47,135.11 -541.62,331.06 334.7,437.67 876.32,106.6 2147.27,83.5 2838.74,-51.61 691.47,-135.1 541.62,-331.05 -334.7,-437.66 -876.32,-106.61 -2147.27,-83.5 -2838.74,51.6z"/>
     <path id="195" class="fil31" d="M-1889.49 -223.88c690.03,-134.83 1958.32,-157.88 2832.81,-51.5 874.5,106.39 1024.03,301.93 334,436.75 -690.02,134.83 -1958.32,157.88 -2832.81,51.5 -874.49,-106.39 -1024.02,-301.93 -334,-436.75zm-9.94 -1.21c-694.35,135.67 -543.88,332.44 336.1,439.49 879.98,107.05 2156.23,83.85 2850.59,-51.82 694.36,-135.67 543.89,-332.44 -336.09,-439.49 -879.98,-107.05 -2156.24,-83.85 -2850.6,51.82z"/>
     <path id="196" class="fil31" d="M-1896.11 -224.69c692.91,-135.39 1966.51,-158.54 2844.66,-51.71 878.15,106.83 1028.32,303.19 335.4,438.58 -692.92,135.39 -1966.52,158.54 -2844.66,51.71 -878.16,-106.83 -1028.32,-303.19 -335.4,-438.58zm-9.94 -1.21c-697.25,136.24 -546.14,333.82 337.49,441.32 883.64,107.5 2165.2,84.2 2862.45,-52.03 697.24,-136.24 546.14,-333.82 -337.5,-441.32 -883.63,-107.5 -2165.19,-84.2 -2862.44,52.03z"/>
     <path id="197" class="fil31" d="M-1902.74 -225.5c695.8,-135.95 1974.71,-159.2 2856.52,-51.92 881.81,107.27 1032.6,304.45 336.8,440.4 -695.81,135.96 -1974.71,159.2 -2856.52,51.93 -881.81,-107.28 -1032.6,-304.45 -336.8,-440.41zm-9.94 -1.2c-700.13,136.79 -548.4,335.2 338.9,443.14 887.29,107.94 2174.16,84.55 2874.29,-52.25 700.14,-136.8 548.41,-335.2 -338.89,-443.14 -887.3,-107.95 -2174.16,-84.55 -2874.3,52.25z"/>
     <path id="198" class="fil31" d="M-1909.36 -226.3c698.69,-136.52 1982.9,-159.86 2868.37,-52.14 885.47,107.72 1036.88,305.71 338.19,442.23 -698.69,136.52 -1982.9,159.86 -2868.37,52.14 -885.47,-107.72 -1036.88,-305.71 -338.19,-442.23zm-9.94 -1.21c-703.02,137.36 -550.67,336.58 340.29,444.97 890.95,108.39 2183.13,84.9 2886.15,-52.46 703.02,-137.36 550.67,-336.59 -340.29,-444.97 -890.96,-108.39 -2183.13,-84.9 -2886.15,52.46z"/>
     <path id="199" class="fil31" d="M-1915.99 -227.11c701.58,-137.08 1991.1,-160.52 2880.23,-52.35 889.12,108.16 1041.16,306.97 339.59,444.06 -701.58,137.08 -1991.1,160.52 -2880.23,52.35 -889.12,-108.16 -1041.16,-306.98 -339.59,-444.06zm-9.94 -1.21c-705.9,137.93 -552.93,337.97 341.69,446.8 894.62,108.84 2192.1,85.25 2898,-52.68 705.91,-137.92 552.93,-337.96 -341.68,-446.8 -894.62,-108.83 -2192.1,-85.24 -2898.01,52.68z"/>
     <path id="200" class="fil31" d="M-1922.61 -227.91c704.46,-137.65 1999.29,-161.19 2892.07,-52.57 892.79,108.61 1045.45,308.24 340.99,445.88 -704.46,137.65 -1999.29,161.18 -2892.08,52.57 -892.78,-108.61 -1045.45,-308.24 -340.98,-445.88zm-9.94 -1.21c-708.79,138.49 -555.19,339.35 343.08,448.63 898.28,109.27 2201.06,85.59 2909.86,-52.9 708.79,-138.49 555.19,-339.35 -343.09,-448.63 -898.27,-109.28 -2201.06,-85.59 -2909.85,52.9z"/>
     <path id="201" class="fil31" d="M-1929.24 -228.72c707.35,-138.21 2007.49,-161.84 2903.93,-52.79 896.45,109.06 1049.74,309.51 342.39,447.72 -707.36,138.21 -2007.49,161.84 -2903.93,52.78 -896.45,-109.05 -1049.74,-309.5 -342.39,-447.71zm-9.94 -1.21c-711.68,139.06 -557.45,340.73 344.49,450.46 901.93,109.72 2210.02,85.94 2921.7,-53.11 711.69,-139.06 557.46,-340.74 -344.48,-450.46 -901.93,-109.72 -2210.02,-85.94 -2921.71,53.11z"/>
     <path id="202" class="fil31" d="M-1935.86 -229.53c710.23,-138.77 2015.67,-162.5 2915.78,-53 900.1,109.5 1054.02,310.77 343.78,449.54 -710.24,138.78 -2015.68,162.51 -2915.78,53.01 -900.1,-109.5 -1054.02,-310.77 -343.78,-449.55zm-9.94 -1.2c-714.57,139.62 -559.71,342.11 345.88,452.28 905.59,110.17 2218.99,86.29 2933.56,-53.33 714.57,-139.62 559.71,-342.11 -345.88,-452.28 -905.59,-110.17 -2218.99,-86.29 -2933.56,53.33z"/>
     <path id="203" class="fil31" d="M-1942.49 -230.33c713.13,-139.34 2023.87,-163.17 2927.64,-53.22 903.76,109.95 1058.3,312.03 345.18,451.37 -713.13,139.34 -2023.88,163.16 -2927.64,53.22 -903.76,-109.95 -1058.3,-312.03 -345.18,-451.37zm-9.94 -1.21c-717.45,140.18 -561.97,343.5 347.28,454.11 909.25,110.61 2227.96,86.64 2945.41,-53.54 717.46,-140.19 561.98,-343.5 -347.27,-454.11 -909.25,-110.62 -2227.96,-86.64 -2945.42,53.54z"/>
     <path id="204" class="fil31" d="M-1949.11 -231.14c716.01,-139.9 2032.06,-163.82 2939.48,-53.43 907.43,110.39 1062.59,313.29 346.58,453.2 -716.01,139.9 -2032.06,163.82 -2939.49,53.43 -907.42,-110.39 -1062.59,-313.3 -346.57,-453.2zm-9.94 -1.21c-720.34,140.75 -564.24,344.88 348.67,455.94 912.91,111.06 2236.93,86.99 2957.27,-53.76 720.34,-140.74 564.24,-344.87 -348.67,-455.93 -912.91,-111.06 -2236.93,-86.99 -2957.27,53.75z"/>
     <path id="205" class="fil31" d="M-1955.74 -231.94c718.9,-140.47 2040.26,-164.49 2951.34,-53.65 911.08,110.83 1066.88,314.56 347.98,455.02 -718.9,140.47 -2040.26,164.49 -2951.34,53.65 -911.08,-110.84 -1066.88,-314.56 -347.98,-455.02zm-9.94 -1.21c-723.23,141.31 -566.49,346.26 350.07,457.76 916.57,111.51 2245.89,87.34 2969.12,-53.97 723.23,-141.31 566.5,-346.26 -350.07,-457.76 -916.57,-111.51 -2245.89,-87.34 -2969.12,53.97z"/>
     <path id="206" class="fil31" d="M-1962.36 -232.75c721.78,-141.03 2048.45,-165.15 2963.19,-53.86 914.74,111.28 1071.16,315.82 349.37,456.85 -721.79,141.03 -2048.45,165.14 -2963.19,53.86 -914.74,-111.28 -1071.16,-315.82 -349.37,-456.85zm-9.94 -1.21c-726.12,141.88 -568.76,347.65 351.47,459.59 920.23,111.95 2254.85,87.69 2980.97,-54.18 726.12,-141.88 568.76,-347.65 -351.47,-459.6 -920.23,-111.95 -2254.85,-87.68 -2980.97,54.19z"/>
     <path id="207" class="fil31" d="M-1968.99 -233.55c724.67,-141.6 2056.65,-165.81 2975.05,-54.09 918.4,111.73 1075.44,317.09 350.77,458.68 -724.68,141.6 -2056.65,165.81 -2975.05,54.08 -918.4,-111.72 -1075.44,-317.08 -350.77,-458.67zm-9.94 -1.21c-729,142.44 -571.02,349.02 352.87,461.42 923.89,112.39 2263.82,88.03 2992.82,-54.41 729.01,-142.44 571.03,-349.02 -352.86,-461.42 -923.89,-112.39 -2263.82,-88.03 -2992.83,54.41z"/>
     <path id="208" class="fil31" d="M-1975.61 -234.36c727.56,-142.16 2064.84,-166.47 2986.89,-54.3 922.06,112.18 1079.73,318.35 352.17,460.51 -727.56,142.16 -2064.84,166.47 -2986.9,54.3 -922.05,-112.18 -1079.72,-318.35 -352.16,-460.51zm-9.94 -1.21c-731.89,143 -573.28,350.41 354.26,463.25 927.55,112.84 2272.79,88.38 3004.68,-54.62 731.89,-143.01 573.28,-350.41 -354.26,-463.25 -927.55,-112.84 -2272.79,-88.38 -3004.68,54.62z"/>
     <path id="209" class="fil31" d="M-1982.24 -235.17c730.45,-142.72 2073.04,-167.12 2998.75,-54.51 925.72,112.62 1084.02,319.61 353.57,462.34 -730.45,142.72 -2073.04,167.12 -2998.75,54.51 -925.72,-112.62 -1084.02,-319.61 -353.57,-462.34zm-9.94 -1.21c-734.78,143.57 -575.54,351.79 355.66,465.08 931.21,113.28 2281.76,88.73 3016.53,-54.84 734.78,-143.56 575.55,-351.78 -355.66,-465.07 -931.2,-113.28 -2281.75,-88.73 -3016.53,54.83z"/>
     <path id="210" class="fil31" d="M-1988.86 -235.97c733.33,-143.29 2081.22,-167.79 3010.6,-54.73 929.37,113.06 1088.3,320.87 354.96,464.16 -733.33,143.29 -2081.23,167.79 -3010.6,54.73 -929.38,-113.06 -1088.3,-320.88 -354.96,-464.16zm-9.94 -1.21c-737.67,144.13 -577.81,353.17 357.06,466.9 934.86,113.73 2290.71,89.08 3028.38,-55.05 737.67,-144.13 577.81,-353.17 -357.06,-466.9 -934.86,-113.73 -2290.72,-89.09 -3028.38,55.05z"/>
     <path id="211" class="fil2" d="M-1995.49 -236.78c736.22,-143.85 2089.42,-168.45 3022.46,-54.94 933.03,113.51 1092.58,322.14 356.36,465.99 -736.23,143.85 -2089.43,168.45 -3022.46,54.94 -933.03,-113.51 -1092.58,-322.14 -356.36,-465.99zm-6.62 -0.81c-739.11,144.42 -578.94,353.87 357.75,467.82 936.7,113.95 2295.2,89.26 3034.31,-55.16 739.11,-144.41 578.94,-353.86 -357.76,-467.81 -936.69,-113.95 -2295.19,-89.26 -3034.3,55.15z"/>
    </g>
   </g>
  </g>
 </g>
</svg>
